<?xml version="1.0" encoding="utf-8"?>
<!-- Generator: Adobe Illustrator 26.3.1, SVG Export Plug-In . SVG Version: 6.00 Build 0)  -->
<svg version="1.1" id="Livello_1" xmlns="http://www.w3.org/2000/svg" xmlns:xlink="http://www.w3.org/1999/xlink" x="0px" y="0px"
	 viewBox="0 0 520 520" style="enable-background:new 0 0 520 520;" xml:space="preserve">
<g>
	<polygon id="XMLID_14_" points="360,320 320,320 320,280 280.1,280 280.1,400.1 320,400.1 320,440 360,440 	"/>
	<rect id="XMLID_13_" x="360" y="440" width="40" height="40"/>
	<rect id="XMLID_12_" x="439.9" y="440" width="40" height="40"/>
	<polygon id="XMLID_11_" points="480,280 439.9,280 439.9,320 399.9,320 399.9,440 439.9,440 439.9,400.1 480,400.1 	"/>
	<rect id="XMLID_10_" x="280.1" y="440" width="40" height="40"/>
	<g>
		<rect id="XMLID_9_" x="120.1" y="119.9" width="40" height="40"/>
		<path d="M40,40v200h199.9V40H40z M200,199.9H80.1V80h120v119.9H200z"/>
	</g>
	<g>
		<rect id="XMLID_6_" x="360" y="119.9" width="40" height="40"/>
		<path d="M280.1,40v200H480V40H280.1z M439.9,199.9H320V80h120v119.9H439.9z"/>
	</g>
	<g>
		<rect id="XMLID_3_" x="120.1" y="359.9" width="40" height="40"/>
		<path d="M40,280v200h199.9V280H40z M200,440H80.1V320h120v120H200z"/>
	</g>
</g>
</svg>
