<svg width="38" height="38" viewBox="0 0 6 6" xmlns="http://www.w3.org/2000/svg" data-v-bc256488=""><path d="M0.7,0.8L0.7,0.8L0.7,0.8c0.1-0.1,0.2-0.1,0.2-0.1C1,0.6,1,0.6,1,0.5c0-0.1-0.1-0.2-0.2-0.2H0.7V0.2C0.7,0.1,0.6,0,0.5,0S0.3,0.1,0.3,0.2v0.1H0.2C0.1,0.3,0,0.4,0,0.5s0.1,0.2,0.2,0.2h0.1v0.1C0.3,0.9,0.4,1,0.5,1 c0.1,0,0.1,0,0.2-0.1S0.7,0.8,0.7,0.8z" data-v-bc256488=""></path><path d="M2.2,0.7L2.2,0.7L2.2,0.7C2.3,0.9,2.4,1,2.5,1c0.1,0,0.1,0,0.2-0.1s0.1-0.1,0.1-0.2V0.7h0.1 c0.1,0,0.1,0,0.2-0.1C3,0.6,3,0.6,3,0.5c0-0.1-0.1-0.2-0.2-0.2H2.7V0.2C2.7,0.1,2.6,0,2.5,0S2.3,0.1,2.3,0.2v0.1H2.2 C2.1,0.3,2,0.4,2,0.5S2.1,0.7,2.2,0.7z" data-v-bc256488=""></path><path d="M4.7,0.8L4.7,0.8L4.7,0.8c0.1-0.1,0.2-0.1,0.2-0.1C5,0.6,5,0.6,5,0.5c0-0.1-0.1-0.2-0.2-0.2H4.7V0.2 C4.7,0.1,4.6,0,4.5,0S4.3,0.1,4.3,0.2v0.1H4.2C4.1,0.3,4,0.4,4,0.5s0.1,0.2,0.2,0.2h0.1v0.1C4.3,0.9,4.4,1,4.5,1 c0.1,0,0.1,0,0.2-0.1S4.7,0.8,4.7,0.8z" data-v-bc256488=""></path><path d="M5.2,0.7L5.2,0.7L5.2,0.7C5.3,0.9,5.4,1,5.5,1c0.1,0,0.1,0,0.2-0.1s0.1-0.1,0.1-0.2V0.7h0.1 c0.1,0,0.1,0,0.2-0.1C6,0.6,6,0.6,6,0.5c0-0.1-0.1-0.2-0.2-0.2H5.7V0.2C5.7,0.1,5.6,0,5.5,0S5.3,0.1,5.3,0.2v0.1H5.2 C5.1,0.3,5,0.4,5,0.5S5.1,0.7,5.2,0.7z" data-v-bc256488=""></path><path d="M4.2,1.7L4.2,1.7L4.2,1.7C4.3,1.9,4.4,2,4.5,2c0.1,0,0.1,0,0.2-0.1s0.1-0.1,0.1-0.2V1.7h0.1 c0.1,0,0.1,0,0.2-0.1C5,1.6,5,1.6,5,1.5c0-0.1-0.1-0.2-0.2-0.2H4.7V1.2C4.7,1.1,4.6,1,4.5,1S4.3,1.1,4.3,1.2v0.1H4.2 C4.1,1.3,4,1.4,4,1.5S4.1,1.7,4.2,1.7z" data-v-bc256488=""></path><path d="M3.7,1.8L3.7,1.8L3.7,1.8c0.1-0.1,0.2-0.1,0.2-0.1C4,1.6,4,1.6,4,1.5c0-0.1-0.1-0.2-0.2-0.2H3.7V1.2 C3.7,1.1,3.6,1,3.5,1S3.3,1.1,3.3,1.2v0.1H3.2C3.1,1.3,3,1.4,3,1.5s0.1,0.2,0.2,0.2h0.1v0.1C3.3,1.9,3.4,2,3.5,2 c0.1,0,0.1,0,0.2-0.1S3.7,1.8,3.7,1.8z" data-v-bc256488=""></path><path d="M3.2,2.7L3.2,2.7L3.2,2.7C3.3,2.9,3.4,3,3.5,3c0.1,0,0.1,0,0.2-0.1s0.1-0.1,0.1-0.2V2.7h0.1 c0.1,0,0.1,0,0.2-0.1C4,2.6,4,2.6,4,2.5c0-0.1-0.1-0.2-0.2-0.2H3.7V2.2C3.7,2.1,3.6,2,3.5,2S3.3,2.1,3.3,2.2v0.1H3.2 C3.1,2.3,3,2.4,3,2.5S3.1,2.7,3.2,2.7z" data-v-bc256488=""></path><path d="M2.2,2.7L2.2,2.7L2.2,2.7C2.3,2.9,2.4,3,2.5,3c0.1,0,0.1,0,0.2-0.1s0.1-0.1,0.1-0.2V2.7h0.1 c0.1,0,0.1,0,0.2-0.1C3,2.6,3,2.6,3,2.5c0-0.1-0.1-0.2-0.2-0.2H2.7V2.2C2.7,2.1,2.6,2,2.5,2S2.3,2.1,2.3,2.2v0.1H2.2 C2.1,2.3,2,2.4,2,2.5S2.1,2.7,2.2,2.7z" data-v-bc256488=""></path><path d="M0.3,1.2L0.3,1.2L0.3,1.2C0.1,1.3,0,1.4,0,1.5s0.1,0.2,0.2,0.2h0.1v0.1C0.3,1.9,0.4,2,0.5,2 c0.1,0,0.1,0,0.2-0.1s0.1-0.1,0.1-0.2V1.7h0.1c0.1,0,0.1,0,0.2-0.1C1,1.6,1,1.6,1,1.5c0-0.1-0.1-0.2-0.2-0.2H0.7V1.2 C0.7,1.1,0.6,1,0.5,1S0.3,1.1,0.3,1.2z" data-v-bc256488=""></path><path d="M0.8,3.3L0.8,3.3L0.8,3.3C0.7,3.1,0.6,3,0.5,3S0.3,3.1,0.3,3.2v0.1H0.2C0.1,3.3,0,3.4,0,3.5s0.1,0.2,0.2,0.2 h0.1v0.1C0.3,3.9,0.4,4,0.5,4c0.1,0,0.1,0,0.2-0.1s0.1-0.1,0.1-0.2V3.7h0.1c0.1,0,0.1,0,0.2-0.1C1,3.6,1,3.6,1,3.5 C1,3.4,0.9,3.3,0.8,3.3z" data-v-bc256488=""></path><path d="M1.8,3.3L1.8,3.3L1.8,3.3C1.7,3.1,1.6,3,1.5,3S1.3,3.1,1.3,3.2v0.1H1.2C1.1,3.3,1,3.4,1,3.5s0.1,0.2,0.2,0.2 h0.1v0.1C1.3,3.9,1.4,4,1.5,4c0.1,0,0.1,0,0.2-0.1s0.1-0.1,0.1-0.2V3.7h0.1c0.1,0,0.1,0,0.2-0.1C2,3.6,2,3.6,2,3.5 C2,3.4,1.9,3.3,1.8,3.3z" data-v-bc256488=""></path><path d="M4.8,3.3L4.8,3.3L4.8,3.3C4.7,3.1,4.6,3,4.5,3S4.3,3.1,4.3,3.2v0.1H4.2C4.1,3.3,4,3.4,4,3.5s0.1,0.2,0.2,0.2 h0.1v0.1C4.3,3.9,4.4,4,4.5,4c0.1,0,0.1,0,0.2-0.1s0.1-0.1,0.1-0.2V3.7h0.1c0.1,0,0.1,0,0.2-0.1C5,3.6,5,3.6,5,3.5 C5,3.4,4.9,3.3,4.8,3.3z" data-v-bc256488=""></path><path d="M5.8,4.3L5.8,4.3L5.8,4.3C5.7,4.1,5.6,4,5.5,4S5.3,4.1,5.3,4.2v0.1H5.2C5.1,4.3,5,4.4,5,4.5s0.1,0.2,0.2,0.2 h0.1v0.1C5.3,4.9,5.4,5,5.5,5c0.1,0,0.1,0,0.2-0.1s0.1-0.1,0.1-0.2V4.7h0.1c0.1,0,0.1,0,0.2-0.1C6,4.6,6,4.6,6,4.5 C6,4.4,5.9,4.3,5.8,4.3z" data-v-bc256488=""></path><path d="M3.8,5.3L3.8,5.3L3.8,5.3C3.7,5.1,3.6,5,3.5,5S3.3,5.1,3.3,5.2v0.1H3.2C3.1,5.3,3,5.4,3,5.5s0.1,0.2,0.2,0.2 h0.1v0.1C3.3,5.9,3.4,6,3.5,6c0.1,0,0.1,0,0.2-0.1s0.1-0.1,0.1-0.2V5.7h0.1c0.1,0,0.1,0,0.2-0.1C4,5.6,4,5.6,4,5.5 C4,5.4,3.9,5.3,3.8,5.3z" data-v-bc256488=""></path><path d="M2.8,5.3L2.8,5.3L2.8,5.3C2.7,5.1,2.6,5,2.5,5S2.3,5.1,2.3,5.2v0.1H2.2C2.1,5.3,2,5.4,2,5.5s0.1,0.2,0.2,0.2 h0.1v0.1C2.3,5.9,2.4,6,2.5,6c0.1,0,0.1,0,0.2-0.1s0.1-0.1,0.1-0.2V5.7h0.1c0.1,0,0.1,0,0.2-0.1C3,5.6,3,5.6,3,5.5 C3,5.4,2.9,5.3,2.8,5.3z" data-v-bc256488=""></path><path d="M0.8,5.3L0.8,5.3L0.8,5.3C0.7,5.1,0.6,5,0.5,5S0.3,5.1,0.3,5.2v0.1H0.2C0.1,5.3,0,5.4,0,5.5s0.1,0.2,0.2,0.2 h0.1v0.1C0.3,5.9,0.4,6,0.5,6c0.1,0,0.1,0,0.2-0.1s0.1-0.1,0.1-0.2V5.7h0.1c0.1,0,0.1,0,0.2-0.1C1,5.6,1,5.6,1,5.5 C1,5.4,0.9,5.3,0.8,5.3z" data-v-bc256488=""></path></svg>