<svg xmlns="http://www.w3.org/2000/svg" xml:space="preserve" xmlns:xlink="http://www.w3.org/1999/xlink" width="56" height="56" viewBox="0 0 396 396">
<defs><mask id="qrmask"><g fill="#ffffff"><g>
<g transform="translate(144,24) scale(2.06)"><circle cx="3" cy="3" r="3"></circle></g>
<g transform="translate(204,24) scale(2.06)"><circle cx="3" cy="3" r="3"></circle></g>
<g transform="translate(216,24) scale(2.06)"><circle cx="3" cy="3" r="3"></circle></g>
<g transform="translate(240,24) scale(2.06)"><circle cx="3" cy="3" r="3"></circle></g>
<g transform="translate(252,24) scale(2.06)"><circle cx="3" cy="3" r="3"></circle></g>
<g transform="translate(264,24) scale(2.06)"><circle cx="3" cy="3" r="3"></circle></g>
<g transform="translate(132,36) scale(2.06)"><circle cx="3" cy="3" r="3"></circle></g>
<g transform="translate(228,36) scale(2.06)"><circle cx="3" cy="3" r="3"></circle></g>
<g transform="translate(240,36) scale(2.06)"><circle cx="3" cy="3" r="3"></circle></g>
<g transform="translate(120,48) scale(2.06)"><circle cx="3" cy="3" r="3"></circle></g>
<g transform="translate(132,48) scale(2.06)"><circle cx="3" cy="3" r="3"></circle></g>
<g transform="translate(144,48) scale(2.06)"><circle cx="3" cy="3" r="3"></circle></g>
<g transform="translate(192,48) scale(2.06)"><circle cx="3" cy="3" r="3"></circle></g>
<g transform="translate(216,48) scale(2.06)"><circle cx="3" cy="3" r="3"></circle></g>
<g transform="translate(252,48) scale(2.06)"><circle cx="3" cy="3" r="3"></circle></g>
<g transform="translate(264,48) scale(2.06)"><circle cx="3" cy="3" r="3"></circle></g>
<g transform="translate(120,60) scale(2.06)"><circle cx="3" cy="3" r="3"></circle></g>
<g transform="translate(132,60) scale(2.06)"><circle cx="3" cy="3" r="3"></circle></g>
<g transform="translate(216,60) scale(2.06)"><circle cx="3" cy="3" r="3"></circle></g>
<g transform="translate(228,60) scale(2.06)"><circle cx="3" cy="3" r="3"></circle></g>
<g transform="translate(252,60) scale(2.06)"><circle cx="3" cy="3" r="3"></circle></g>
<g transform="translate(120,72) scale(2.06)"><circle cx="3" cy="3" r="3"></circle></g>
<g transform="translate(132,72) scale(2.06)"><circle cx="3" cy="3" r="3"></circle></g>
<g transform="translate(156,72) scale(2.06)"><circle cx="3" cy="3" r="3"></circle></g>
<g transform="translate(168,72) scale(2.06)"><circle cx="3" cy="3" r="3"></circle></g>
<g transform="translate(180,72) scale(2.06)"><circle cx="3" cy="3" r="3"></circle></g>
<g transform="translate(192,72) scale(2.06)"><circle cx="3" cy="3" r="3"></circle></g>
<g transform="translate(204,72) scale(2.06)"><circle cx="3" cy="3" r="3"></circle></g>
<g transform="translate(228,72) scale(2.06)"><circle cx="3" cy="3" r="3"></circle></g>
<g transform="translate(240,72) scale(2.06)"><circle cx="3" cy="3" r="3"></circle></g>
<g transform="translate(252,72) scale(2.06)"><circle cx="3" cy="3" r="3"></circle></g>
<g transform="translate(120,84) scale(2.06)"><circle cx="3" cy="3" r="3"></circle></g>
<g transform="translate(144,84) scale(2.06)"><circle cx="3" cy="3" r="3"></circle></g>
<g transform="translate(156,84) scale(2.06)"><circle cx="3" cy="3" r="3"></circle></g>
<g transform="translate(180,84) scale(2.06)"><circle cx="3" cy="3" r="3"></circle></g>
<g transform="translate(192,84) scale(2.06)"><circle cx="3" cy="3" r="3"></circle></g>
<g transform="translate(204,84) scale(2.06)"><circle cx="3" cy="3" r="3"></circle></g>
<g transform="translate(216,84) scale(2.06)"><circle cx="3" cy="3" r="3"></circle></g>
<g transform="translate(228,84) scale(2.06)"><circle cx="3" cy="3" r="3"></circle></g>
<g transform="translate(120,96) scale(2.06)"><circle cx="3" cy="3" r="3"></circle></g>
<g transform="translate(144,96) scale(2.06)"><circle cx="3" cy="3" r="3"></circle></g>
<g transform="translate(168,96) scale(2.06)"><circle cx="3" cy="3" r="3"></circle></g>
<g transform="translate(192,96) scale(2.06)"><circle cx="3" cy="3" r="3"></circle></g>
<g transform="translate(216,96) scale(2.06)"><circle cx="3" cy="3" r="3"></circle></g>
<g transform="translate(240,96) scale(2.06)"><circle cx="3" cy="3" r="3"></circle></g>
<g transform="translate(264,96) scale(2.06)"><circle cx="3" cy="3" r="3"></circle></g>
<g transform="translate(120,108) scale(2.06)"><circle cx="3" cy="3" r="3"></circle></g>
<g transform="translate(144,108) scale(2.06)"><circle cx="3" cy="3" r="3"></circle></g>
<g transform="translate(168,108) scale(2.06)"><circle cx="3" cy="3" r="3"></circle></g>
<g transform="translate(180,108) scale(2.06)"><circle cx="3" cy="3" r="3"></circle></g>
<g transform="translate(204,108) scale(2.06)"><circle cx="3" cy="3" r="3"></circle></g>
<g transform="translate(264,108) scale(2.06)"><circle cx="3" cy="3" r="3"></circle></g>
<g transform="translate(24,120) scale(2.06)"><circle cx="3" cy="3" r="3"></circle></g>
<g transform="translate(48,120) scale(2.06)"><circle cx="3" cy="3" r="3"></circle></g>
<g transform="translate(60,120) scale(2.06)"><circle cx="3" cy="3" r="3"></circle></g>
<g transform="translate(72,120) scale(2.06)"><circle cx="3" cy="3" r="3"></circle></g>
<g transform="translate(84,120) scale(2.06)"><circle cx="3" cy="3" r="3"></circle></g>
<g transform="translate(96,120) scale(2.06)"><circle cx="3" cy="3" r="3"></circle></g>
<g transform="translate(132,120) scale(2.06)"><circle cx="3" cy="3" r="3"></circle></g>
<g transform="translate(144,120) scale(2.06)"><circle cx="3" cy="3" r="3"></circle></g>
<g transform="translate(156,120) scale(2.06)"><circle cx="3" cy="3" r="3"></circle></g>
<g transform="translate(192,120) scale(2.06)"><circle cx="3" cy="3" r="3"></circle></g>
<g transform="translate(204,120) scale(2.06)"><circle cx="3" cy="3" r="3"></circle></g>
<g transform="translate(228,120) scale(2.06)"><circle cx="3" cy="3" r="3"></circle></g>
<g transform="translate(264,120) scale(2.06)"><circle cx="3" cy="3" r="3"></circle></g>
<g transform="translate(288,120) scale(2.06)"><circle cx="3" cy="3" r="3"></circle></g>
<g transform="translate(300,120) scale(2.06)"><circle cx="3" cy="3" r="3"></circle></g>
<g transform="translate(312,120) scale(2.06)"><circle cx="3" cy="3" r="3"></circle></g>
<g transform="translate(324,120) scale(2.06)"><circle cx="3" cy="3" r="3"></circle></g>
<g transform="translate(336,120) scale(2.06)"><circle cx="3" cy="3" r="3"></circle></g>
<g transform="translate(24,132) scale(2.06)"><circle cx="3" cy="3" r="3"></circle></g>
<g transform="translate(48,132) scale(2.06)"><circle cx="3" cy="3" r="3"></circle></g>
<g transform="translate(120,132) scale(2.06)"><circle cx="3" cy="3" r="3"></circle></g>
<g transform="translate(156,132) scale(2.06)"><circle cx="3" cy="3" r="3"></circle></g>
<g transform="translate(168,132) scale(2.06)"><circle cx="3" cy="3" r="3"></circle></g>
<g transform="translate(204,132) scale(2.06)"><circle cx="3" cy="3" r="3"></circle></g>
<g transform="translate(216,132) scale(2.06)"><circle cx="3" cy="3" r="3"></circle></g>
<g transform="translate(228,132) scale(2.06)"><circle cx="3" cy="3" r="3"></circle></g>
<g transform="translate(240,132) scale(2.06)"><circle cx="3" cy="3" r="3"></circle></g>
<g transform="translate(252,132) scale(2.06)"><circle cx="3" cy="3" r="3"></circle></g>
<g transform="translate(264,132) scale(2.06)"><circle cx="3" cy="3" r="3"></circle></g>
<g transform="translate(288,132) scale(2.06)"><circle cx="3" cy="3" r="3"></circle></g>
<g transform="translate(300,132) scale(2.06)"><circle cx="3" cy="3" r="3"></circle></g>
<g transform="translate(312,132) scale(2.06)"><circle cx="3" cy="3" r="3"></circle></g>
<g transform="translate(360,132) scale(2.06)"><circle cx="3" cy="3" r="3"></circle></g>
<g transform="translate(36,144) scale(2.06)"><circle cx="3" cy="3" r="3"></circle></g>
<g transform="translate(84,144) scale(2.06)"><circle cx="3" cy="3" r="3"></circle></g>
<g transform="translate(96,144) scale(2.06)"><circle cx="3" cy="3" r="3"></circle></g>
<g transform="translate(108,144) scale(2.06)"><circle cx="3" cy="3" r="3"></circle></g>
<g transform="translate(132,144) scale(2.06)"><circle cx="3" cy="3" r="3"></circle></g>
<g transform="translate(144,144) scale(2.06)"><circle cx="3" cy="3" r="3"></circle></g>
<g transform="translate(156,144) scale(2.06)"><circle cx="3" cy="3" r="3"></circle></g>
<g transform="translate(276,144) scale(2.06)"><circle cx="3" cy="3" r="3"></circle></g>
<g transform="translate(24,156) scale(2.06)"><circle cx="3" cy="3" r="3"></circle></g>
<g transform="translate(36,156) scale(2.06)"><circle cx="3" cy="3" r="3"></circle></g>
<g transform="translate(48,156) scale(2.06)"><circle cx="3" cy="3" r="3"></circle></g>
<g transform="translate(60,156) scale(2.06)"><circle cx="3" cy="3" r="3"></circle></g>
<g transform="translate(84,156) scale(2.06)"><circle cx="3" cy="3" r="3"></circle></g>
<g transform="translate(108,156) scale(2.06)"><circle cx="3" cy="3" r="3"></circle></g>
<g transform="translate(120,156) scale(2.06)"><circle cx="3" cy="3" r="3"></circle></g>
<g transform="translate(156,156) scale(2.06)"><circle cx="3" cy="3" r="3"></circle></g>
<g transform="translate(168,156) scale(2.06)"><circle cx="3" cy="3" r="3"></circle></g>
<g transform="translate(192,156) scale(2.06)"><circle cx="3" cy="3" r="3"></circle></g>
<g transform="translate(216,156) scale(2.06)"><circle cx="3" cy="3" r="3"></circle></g>
<g transform="translate(264,156) scale(2.06)"><circle cx="3" cy="3" r="3"></circle></g>
<g transform="translate(300,156) scale(2.06)"><circle cx="3" cy="3" r="3"></circle></g>
<g transform="translate(324,156) scale(2.06)"><circle cx="3" cy="3" r="3"></circle></g>
<g transform="translate(348,156) scale(2.06)"><circle cx="3" cy="3" r="3"></circle></g>
<g transform="translate(84,168) scale(2.06)"><circle cx="3" cy="3" r="3"></circle></g>
<g transform="translate(96,168) scale(2.06)"><circle cx="3" cy="3" r="3"></circle></g>
<g transform="translate(120,168) scale(2.06)"><circle cx="3" cy="3" r="3"></circle></g>
<g transform="translate(132,168) scale(2.06)"><circle cx="3" cy="3" r="3"></circle></g>
<g transform="translate(156,168) scale(2.06)"><circle cx="3" cy="3" r="3"></circle></g>
<g transform="translate(216,168) scale(2.06)"><circle cx="3" cy="3" r="3"></circle></g>
<g transform="translate(228,168) scale(2.06)"><circle cx="3" cy="3" r="3"></circle></g>
<g transform="translate(240,168) scale(2.06)"><circle cx="3" cy="3" r="3"></circle></g>
<g transform="translate(252,168) scale(2.06)"><circle cx="3" cy="3" r="3"></circle></g>
<g transform="translate(324,168) scale(2.06)"><circle cx="3" cy="3" r="3"></circle></g>
<g transform="translate(336,168) scale(2.06)"><circle cx="3" cy="3" r="3"></circle></g>
<g transform="translate(24,180) scale(2.06)"><circle cx="3" cy="3" r="3"></circle></g>
<g transform="translate(36,180) scale(2.06)"><circle cx="3" cy="3" r="3"></circle></g>
<g transform="translate(48,180) scale(2.06)"><circle cx="3" cy="3" r="3"></circle></g>
<g transform="translate(60,180) scale(2.06)"><circle cx="3" cy="3" r="3"></circle></g>
<g transform="translate(72,180) scale(2.06)"><circle cx="3" cy="3" r="3"></circle></g>
<g transform="translate(108,180) scale(2.06)"><circle cx="3" cy="3" r="3"></circle></g>
<g transform="translate(132,180) scale(2.06)"><circle cx="3" cy="3" r="3"></circle></g>
<g transform="translate(144,180) scale(2.06)"><circle cx="3" cy="3" r="3"></circle></g>
<g transform="translate(156,180) scale(2.06)"><circle cx="3" cy="3" r="3"></circle></g>
<g transform="translate(168,180) scale(2.06)"><circle cx="3" cy="3" r="3"></circle></g>
<g transform="translate(180,180) scale(2.06)"><circle cx="3" cy="3" r="3"></circle></g>
<g transform="translate(192,180) scale(2.06)"><circle cx="3" cy="3" r="3"></circle></g>
<g transform="translate(204,180) scale(2.06)"><circle cx="3" cy="3" r="3"></circle></g>
<g transform="translate(228,180) scale(2.06)"><circle cx="3" cy="3" r="3"></circle></g>
<g transform="translate(240,180) scale(2.06)"><circle cx="3" cy="3" r="3"></circle></g>
<g transform="translate(252,180) scale(2.06)"><circle cx="3" cy="3" r="3"></circle></g>
<g transform="translate(264,180) scale(2.06)"><circle cx="3" cy="3" r="3"></circle></g>
<g transform="translate(276,180) scale(2.06)"><circle cx="3" cy="3" r="3"></circle></g>
<g transform="translate(288,180) scale(2.06)"><circle cx="3" cy="3" r="3"></circle></g>
<g transform="translate(312,180) scale(2.06)"><circle cx="3" cy="3" r="3"></circle></g>
<g transform="translate(360,180) scale(2.06)"><circle cx="3" cy="3" r="3"></circle></g>
<g transform="translate(48,192) scale(2.06)"><circle cx="3" cy="3" r="3"></circle></g>
<g transform="translate(84,192) scale(2.06)"><circle cx="3" cy="3" r="3"></circle></g>
<g transform="translate(96,192) scale(2.06)"><circle cx="3" cy="3" r="3"></circle></g>
<g transform="translate(132,192) scale(2.06)"><circle cx="3" cy="3" r="3"></circle></g>
<g transform="translate(156,192) scale(2.06)"><circle cx="3" cy="3" r="3"></circle></g>
<g transform="translate(180,192) scale(2.06)"><circle cx="3" cy="3" r="3"></circle></g>
<g transform="translate(192,192) scale(2.06)"><circle cx="3" cy="3" r="3"></circle></g>
<g transform="translate(204,192) scale(2.06)"><circle cx="3" cy="3" r="3"></circle></g>
<g transform="translate(216,192) scale(2.06)"><circle cx="3" cy="3" r="3"></circle></g>
<g transform="translate(228,192) scale(2.06)"><circle cx="3" cy="3" r="3"></circle></g>
<g transform="translate(264,192) scale(2.06)"><circle cx="3" cy="3" r="3"></circle></g>
<g transform="translate(288,192) scale(2.06)"><circle cx="3" cy="3" r="3"></circle></g>
<g transform="translate(312,192) scale(2.06)"><circle cx="3" cy="3" r="3"></circle></g>
<g transform="translate(324,192) scale(2.06)"><circle cx="3" cy="3" r="3"></circle></g>
<g transform="translate(336,192) scale(2.06)"><circle cx="3" cy="3" r="3"></circle></g>
<g transform="translate(48,204) scale(2.06)"><circle cx="3" cy="3" r="3"></circle></g>
<g transform="translate(120,204) scale(2.06)"><circle cx="3" cy="3" r="3"></circle></g>
<g transform="translate(132,204) scale(2.06)"><circle cx="3" cy="3" r="3"></circle></g>
<g transform="translate(168,204) scale(2.06)"><circle cx="3" cy="3" r="3"></circle></g>
<g transform="translate(180,204) scale(2.06)"><circle cx="3" cy="3" r="3"></circle></g>
<g transform="translate(204,204) scale(2.06)"><circle cx="3" cy="3" r="3"></circle></g>
<g transform="translate(264,204) scale(2.06)"><circle cx="3" cy="3" r="3"></circle></g>
<g transform="translate(288,204) scale(2.06)"><circle cx="3" cy="3" r="3"></circle></g>
<g transform="translate(312,204) scale(2.06)"><circle cx="3" cy="3" r="3"></circle></g>
<g transform="translate(348,204) scale(2.06)"><circle cx="3" cy="3" r="3"></circle></g>
<g transform="translate(24,216) scale(2.06)"><circle cx="3" cy="3" r="3"></circle></g>
<g transform="translate(36,216) scale(2.06)"><circle cx="3" cy="3" r="3"></circle></g>
<g transform="translate(84,216) scale(2.06)"><circle cx="3" cy="3" r="3"></circle></g>
<g transform="translate(96,216) scale(2.06)"><circle cx="3" cy="3" r="3"></circle></g>
<g transform="translate(120,216) scale(2.06)"><circle cx="3" cy="3" r="3"></circle></g>
<g transform="translate(132,216) scale(2.06)"><circle cx="3" cy="3" r="3"></circle></g>
<g transform="translate(144,216) scale(2.06)"><circle cx="3" cy="3" r="3"></circle></g>
<g transform="translate(156,216) scale(2.06)"><circle cx="3" cy="3" r="3"></circle></g>
<g transform="translate(192,216) scale(2.06)"><circle cx="3" cy="3" r="3"></circle></g>
<g transform="translate(204,216) scale(2.06)"><circle cx="3" cy="3" r="3"></circle></g>
<g transform="translate(264,216) scale(2.06)"><circle cx="3" cy="3" r="3"></circle></g>
<g transform="translate(300,216) scale(2.06)"><circle cx="3" cy="3" r="3"></circle></g>
<g transform="translate(324,216) scale(2.06)"><circle cx="3" cy="3" r="3"></circle></g>
<g transform="translate(336,216) scale(2.06)"><circle cx="3" cy="3" r="3"></circle></g>
<g transform="translate(24,228) scale(2.06)"><circle cx="3" cy="3" r="3"></circle></g>
<g transform="translate(48,228) scale(2.06)"><circle cx="3" cy="3" r="3"></circle></g>
<g transform="translate(144,228) scale(2.06)"><circle cx="3" cy="3" r="3"></circle></g>
<g transform="translate(168,228) scale(2.06)"><circle cx="3" cy="3" r="3"></circle></g>
<g transform="translate(204,228) scale(2.06)"><circle cx="3" cy="3" r="3"></circle></g>
<g transform="translate(216,228) scale(2.06)"><circle cx="3" cy="3" r="3"></circle></g>
<g transform="translate(228,228) scale(2.06)"><circle cx="3" cy="3" r="3"></circle></g>
<g transform="translate(240,228) scale(2.06)"><circle cx="3" cy="3" r="3"></circle></g>
<g transform="translate(252,228) scale(2.06)"><circle cx="3" cy="3" r="3"></circle></g>
<g transform="translate(264,228) scale(2.06)"><circle cx="3" cy="3" r="3"></circle></g>
<g transform="translate(276,228) scale(2.06)"><circle cx="3" cy="3" r="3"></circle></g>
<g transform="translate(288,228) scale(2.06)"><circle cx="3" cy="3" r="3"></circle></g>
<g transform="translate(300,228) scale(2.06)"><circle cx="3" cy="3" r="3"></circle></g>
<g transform="translate(312,228) scale(2.06)"><circle cx="3" cy="3" r="3"></circle></g>
<g transform="translate(336,228) scale(2.06)"><circle cx="3" cy="3" r="3"></circle></g>
<g transform="translate(360,228) scale(2.06)"><circle cx="3" cy="3" r="3"></circle></g>
<g transform="translate(24,240) scale(2.06)"><circle cx="3" cy="3" r="3"></circle></g>
<g transform="translate(48,240) scale(2.06)"><circle cx="3" cy="3" r="3"></circle></g>
<g transform="translate(60,240) scale(2.06)"><circle cx="3" cy="3" r="3"></circle></g>
<g transform="translate(72,240) scale(2.06)"><circle cx="3" cy="3" r="3"></circle></g>
<g transform="translate(84,240) scale(2.06)"><circle cx="3" cy="3" r="3"></circle></g>
<g transform="translate(96,240) scale(2.06)"><circle cx="3" cy="3" r="3"></circle></g>
<g transform="translate(108,240) scale(2.06)"><circle cx="3" cy="3" r="3"></circle></g>
<g transform="translate(120,240) scale(2.06)"><circle cx="3" cy="3" r="3"></circle></g>
<g transform="translate(168,240) scale(2.06)"><circle cx="3" cy="3" r="3"></circle></g>
<g transform="translate(228,240) scale(2.06)"><circle cx="3" cy="3" r="3"></circle></g>
<g transform="translate(264,240) scale(2.06)"><circle cx="3" cy="3" r="3"></circle></g>
<g transform="translate(312,240) scale(2.06)"><circle cx="3" cy="3" r="3"></circle></g>
<g transform="translate(336,240) scale(2.06)"><circle cx="3" cy="3" r="3"></circle></g>
<g transform="translate(24,252) scale(2.06)"><circle cx="3" cy="3" r="3"></circle></g>
<g transform="translate(48,252) scale(2.06)"><circle cx="3" cy="3" r="3"></circle></g>
<g transform="translate(60,252) scale(2.06)"><circle cx="3" cy="3" r="3"></circle></g>
<g transform="translate(72,252) scale(2.06)"><circle cx="3" cy="3" r="3"></circle></g>
<g transform="translate(108,252) scale(2.06)"><circle cx="3" cy="3" r="3"></circle></g>
<g transform="translate(132,252) scale(2.06)"><circle cx="3" cy="3" r="3"></circle></g>
<g transform="translate(144,252) scale(2.06)"><circle cx="3" cy="3" r="3"></circle></g>
<g transform="translate(156,252) scale(2.06)"><circle cx="3" cy="3" r="3"></circle></g>
<g transform="translate(192,252) scale(2.06)"><circle cx="3" cy="3" r="3"></circle></g>
<g transform="translate(216,252) scale(2.06)"><circle cx="3" cy="3" r="3"></circle></g>
<g transform="translate(240,252) scale(2.06)"><circle cx="3" cy="3" r="3"></circle></g>
<g transform="translate(276,252) scale(2.06)"><circle cx="3" cy="3" r="3"></circle></g>
<g transform="translate(312,252) scale(2.06)"><circle cx="3" cy="3" r="3"></circle></g>
<g transform="translate(348,252) scale(2.06)"><circle cx="3" cy="3" r="3"></circle></g>
<g transform="translate(24,264) scale(2.06)"><circle cx="3" cy="3" r="3"></circle></g>
<g transform="translate(48,264) scale(2.06)"><circle cx="3" cy="3" r="3"></circle></g>
<g transform="translate(60,264) scale(2.06)"><circle cx="3" cy="3" r="3"></circle></g>
<g transform="translate(84,264) scale(2.06)"><circle cx="3" cy="3" r="3"></circle></g>
<g transform="translate(96,264) scale(2.06)"><circle cx="3" cy="3" r="3"></circle></g>
<g transform="translate(108,264) scale(2.06)"><circle cx="3" cy="3" r="3"></circle></g>
<g transform="translate(144,264) scale(2.06)"><circle cx="3" cy="3" r="3"></circle></g>
<g transform="translate(156,264) scale(2.06)"><circle cx="3" cy="3" r="3"></circle></g>
<g transform="translate(168,264) scale(2.06)"><circle cx="3" cy="3" r="3"></circle></g>
<g transform="translate(264,264) scale(2.06)"><circle cx="3" cy="3" r="3"></circle></g>
<g transform="translate(276,264) scale(2.06)"><circle cx="3" cy="3" r="3"></circle></g>
<g transform="translate(288,264) scale(2.06)"><circle cx="3" cy="3" r="3"></circle></g>
<g transform="translate(300,264) scale(2.06)"><circle cx="3" cy="3" r="3"></circle></g>
<g transform="translate(312,264) scale(2.06)"><circle cx="3" cy="3" r="3"></circle></g>
<g transform="translate(336,264) scale(2.06)"><circle cx="3" cy="3" r="3"></circle></g>
<g transform="translate(348,264) scale(2.06)"><circle cx="3" cy="3" r="3"></circle></g>
<g transform="translate(360,264) scale(2.06)"><circle cx="3" cy="3" r="3"></circle></g>
<g transform="translate(120,276) scale(2.06)"><circle cx="3" cy="3" r="3"></circle></g>
<g transform="translate(132,276) scale(2.06)"><circle cx="3" cy="3" r="3"></circle></g>
<g transform="translate(180,276) scale(2.06)"><circle cx="3" cy="3" r="3"></circle></g>
<g transform="translate(192,276) scale(2.06)"><circle cx="3" cy="3" r="3"></circle></g>
<g transform="translate(204,276) scale(2.06)"><circle cx="3" cy="3" r="3"></circle></g>
<g transform="translate(228,276) scale(2.06)"><circle cx="3" cy="3" r="3"></circle></g>
<g transform="translate(240,276) scale(2.06)"><circle cx="3" cy="3" r="3"></circle></g>
<g transform="translate(264,276) scale(2.06)"><circle cx="3" cy="3" r="3"></circle></g>
<g transform="translate(312,276) scale(2.06)"><circle cx="3" cy="3" r="3"></circle></g>
<g transform="translate(324,276) scale(2.06)"><circle cx="3" cy="3" r="3"></circle></g>
<g transform="translate(336,276) scale(2.06)"><circle cx="3" cy="3" r="3"></circle></g>
<g transform="translate(348,276) scale(2.06)"><circle cx="3" cy="3" r="3"></circle></g>
<g transform="translate(360,276) scale(2.06)"><circle cx="3" cy="3" r="3"></circle></g>
<g transform="translate(144,288) scale(2.06)"><circle cx="3" cy="3" r="3"></circle></g>
<g transform="translate(156,288) scale(2.06)"><circle cx="3" cy="3" r="3"></circle></g>
<g transform="translate(180,288) scale(2.06)"><circle cx="3" cy="3" r="3"></circle></g>
<g transform="translate(192,288) scale(2.06)"><circle cx="3" cy="3" r="3"></circle></g>
<g transform="translate(204,288) scale(2.06)"><circle cx="3" cy="3" r="3"></circle></g>
<g transform="translate(228,288) scale(2.06)"><circle cx="3" cy="3" r="3"></circle></g>
<g transform="translate(240,288) scale(2.06)"><circle cx="3" cy="3" r="3"></circle></g>
<g transform="translate(252,288) scale(2.06)"><circle cx="3" cy="3" r="3"></circle></g>
<g transform="translate(264,288) scale(2.06)"><circle cx="3" cy="3" r="3"></circle></g>
<g transform="translate(288,288) scale(2.06)"><circle cx="3" cy="3" r="3"></circle></g>
<g transform="translate(312,288) scale(2.06)"><circle cx="3" cy="3" r="3"></circle></g>
<g transform="translate(324,288) scale(2.06)"><circle cx="3" cy="3" r="3"></circle></g>
<g transform="translate(336,288) scale(2.06)"><circle cx="3" cy="3" r="3"></circle></g>
<g transform="translate(120,300) scale(2.06)"><circle cx="3" cy="3" r="3"></circle></g>
<g transform="translate(132,300) scale(2.06)"><circle cx="3" cy="3" r="3"></circle></g>
<g transform="translate(144,300) scale(2.06)"><circle cx="3" cy="3" r="3"></circle></g>
<g transform="translate(168,300) scale(2.06)"><circle cx="3" cy="3" r="3"></circle></g>
<g transform="translate(180,300) scale(2.06)"><circle cx="3" cy="3" r="3"></circle></g>
<g transform="translate(216,300) scale(2.06)"><circle cx="3" cy="3" r="3"></circle></g>
<g transform="translate(252,300) scale(2.06)"><circle cx="3" cy="3" r="3"></circle></g>
<g transform="translate(264,300) scale(2.06)"><circle cx="3" cy="3" r="3"></circle></g>
<g transform="translate(312,300) scale(2.06)"><circle cx="3" cy="3" r="3"></circle></g>
<g transform="translate(360,300) scale(2.06)"><circle cx="3" cy="3" r="3"></circle></g>
<g transform="translate(120,312) scale(2.06)"><circle cx="3" cy="3" r="3"></circle></g>
<g transform="translate(132,312) scale(2.06)"><circle cx="3" cy="3" r="3"></circle></g>
<g transform="translate(156,312) scale(2.06)"><circle cx="3" cy="3" r="3"></circle></g>
<g transform="translate(192,312) scale(2.06)"><circle cx="3" cy="3" r="3"></circle></g>
<g transform="translate(204,312) scale(2.06)"><circle cx="3" cy="3" r="3"></circle></g>
<g transform="translate(216,312) scale(2.06)"><circle cx="3" cy="3" r="3"></circle></g>
<g transform="translate(264,312) scale(2.06)"><circle cx="3" cy="3" r="3"></circle></g>
<g transform="translate(276,312) scale(2.06)"><circle cx="3" cy="3" r="3"></circle></g>
<g transform="translate(288,312) scale(2.06)"><circle cx="3" cy="3" r="3"></circle></g>
<g transform="translate(300,312) scale(2.06)"><circle cx="3" cy="3" r="3"></circle></g>
<g transform="translate(312,312) scale(2.06)"><circle cx="3" cy="3" r="3"></circle></g>
<g transform="translate(336,312) scale(2.06)"><circle cx="3" cy="3" r="3"></circle></g>
<g transform="translate(360,312) scale(2.06)"><circle cx="3" cy="3" r="3"></circle></g>
<g transform="translate(120,324) scale(2.06)"><circle cx="3" cy="3" r="3"></circle></g>
<g transform="translate(144,324) scale(2.06)"><circle cx="3" cy="3" r="3"></circle></g>
<g transform="translate(216,324) scale(2.06)"><circle cx="3" cy="3" r="3"></circle></g>
<g transform="translate(228,324) scale(2.06)"><circle cx="3" cy="3" r="3"></circle></g>
<g transform="translate(240,324) scale(2.06)"><circle cx="3" cy="3" r="3"></circle></g>
<g transform="translate(264,324) scale(2.06)"><circle cx="3" cy="3" r="3"></circle></g>
<g transform="translate(300,324) scale(2.06)"><circle cx="3" cy="3" r="3"></circle></g>
<g transform="translate(324,324) scale(2.06)"><circle cx="3" cy="3" r="3"></circle></g>
<g transform="translate(336,324) scale(2.06)"><circle cx="3" cy="3" r="3"></circle></g>
<g transform="translate(120,336) scale(2.06)"><circle cx="3" cy="3" r="3"></circle></g>
<g transform="translate(156,336) scale(2.06)"><circle cx="3" cy="3" r="3"></circle></g>
<g transform="translate(168,336) scale(2.06)"><circle cx="3" cy="3" r="3"></circle></g>
<g transform="translate(192,336) scale(2.06)"><circle cx="3" cy="3" r="3"></circle></g>
<g transform="translate(204,336) scale(2.06)"><circle cx="3" cy="3" r="3"></circle></g>
<g transform="translate(216,336) scale(2.06)"><circle cx="3" cy="3" r="3"></circle></g>
<g transform="translate(228,336) scale(2.06)"><circle cx="3" cy="3" r="3"></circle></g>
<g transform="translate(252,336) scale(2.06)"><circle cx="3" cy="3" r="3"></circle></g>
<g transform="translate(276,336) scale(2.06)"><circle cx="3" cy="3" r="3"></circle></g>
<g transform="translate(288,336) scale(2.06)"><circle cx="3" cy="3" r="3"></circle></g>
<g transform="translate(300,336) scale(2.06)"><circle cx="3" cy="3" r="3"></circle></g>
<g transform="translate(312,336) scale(2.06)"><circle cx="3" cy="3" r="3"></circle></g>
<g transform="translate(324,336) scale(2.06)"><circle cx="3" cy="3" r="3"></circle></g>
<g transform="translate(336,336) scale(2.06)"><circle cx="3" cy="3" r="3"></circle></g>
<g transform="translate(348,336) scale(2.06)"><circle cx="3" cy="3" r="3"></circle></g>
<g transform="translate(144,348) scale(2.06)"><circle cx="3" cy="3" r="3"></circle></g>
<g transform="translate(168,348) scale(2.06)"><circle cx="3" cy="3" r="3"></circle></g>
<g transform="translate(192,348) scale(2.06)"><circle cx="3" cy="3" r="3"></circle></g>
<g transform="translate(204,348) scale(2.06)"><circle cx="3" cy="3" r="3"></circle></g>
<g transform="translate(252,348) scale(2.06)"><circle cx="3" cy="3" r="3"></circle></g>
<g transform="translate(264,348) scale(2.06)"><circle cx="3" cy="3" r="3"></circle></g>
<g transform="translate(300,348) scale(2.06)"><circle cx="3" cy="3" r="3"></circle></g>
<g transform="translate(312,348) scale(2.06)"><circle cx="3" cy="3" r="3"></circle></g>
<g transform="translate(324,348) scale(2.06)"><circle cx="3" cy="3" r="3"></circle></g>
<g transform="translate(348,348) scale(2.06)"><circle cx="3" cy="3" r="3"></circle></g>
<g transform="translate(120,360) scale(2.06)"><circle cx="3" cy="3" r="3"></circle></g>
<g transform="translate(144,360) scale(2.06)"><circle cx="3" cy="3" r="3"></circle></g>
<g transform="translate(156,360) scale(2.06)"><circle cx="3" cy="3" r="3"></circle></g>
<g transform="translate(204,360) scale(2.06)"><circle cx="3" cy="3" r="3"></circle></g>
<g transform="translate(216,360) scale(2.06)"><circle cx="3" cy="3" r="3"></circle></g>
<g transform="translate(228,360) scale(2.06)"><circle cx="3" cy="3" r="3"></circle></g>
<g transform="translate(240,360) scale(2.06)"><circle cx="3" cy="3" r="3"></circle></g>
<g transform="translate(252,360) scale(2.06)"><circle cx="3" cy="3" r="3"></circle></g>
<g transform="translate(312,360) scale(2.06)"><circle cx="3" cy="3" r="3"></circle></g>
<g transform="translate(336,360) scale(2.06)"><circle cx="3" cy="3" r="3"></circle></g>
<g transform="translate(24,24)"><g transform="scale(6)"><path d="M0,7L0,7c0,3.9,3.1,7,7,7h0c3.9,0,7-3.1,7-7v0c0-3.9-3.1-7-7-7h0C3.1,0,0,3.1,0,7z M7,12L7,12c-2.8,0-5-2.2-5-5v0 c0-2.8,2.2-5,5-5h0c2.8,0,5,2.2,5,5v0C12,9.8,9.8,12,7,12z"></path></g></g>
<g transform="translate(288,24)"><g transform="scale(6)"><path d="M0,7L0,7c0,3.9,3.1,7,7,7h0c3.9,0,7-3.1,7-7v0c0-3.9-3.1-7-7-7h0C3.1,0,0,3.1,0,7z M7,12L7,12c-2.8,0-5-2.2-5-5v0 c0-2.8,2.2-5,5-5h0c2.8,0,5,2.2,5,5v0C12,9.8,9.8,12,7,12z"></path></g></g>
<g transform="translate(24,288)"><g transform="scale(6)"><path d="M0,7L0,7c0,3.9,3.1,7,7,7h0c3.9,0,7-3.1,7-7v0c0-3.9-3.1-7-7-7h0C3.1,0,0,3.1,0,7z M7,12L7,12c-2.8,0-5-2.2-5-5v0 c0-2.8,2.2-5,5-5h0c2.8,0,5,2.2,5,5v0C12,9.8,9.8,12,7,12z"></path></g></g>
<g transform="translate(48,48)"><g transform="scale(6)"><circle cx="3" cy="3" r="3"></circle></g></g>
<g transform="translate(312,48)"><g transform="scale(6)"><circle cx="3" cy="3" r="3"></circle></g></g>
<g transform="translate(48,312)"><g transform="scale(6)"><circle cx="3" cy="3" r="3"></circle></g></g>
</g></g></mask></defs>
<rect width="396" height="396" fill="#ffffff" x="0" y="0"></rect>
<rect x="0" y="0" width="396" height="396" mask="url(#qrmask)" fill="#000000"></rect>
</svg>