<svg xmlns="http://www.w3.org/2000/svg" xml:space="preserve" xmlns:xlink="http://www.w3.org/1999/xlink" width="56" height="56" viewBox="0 0 396 396">
<defs><mask id="qrmask"><g fill="#ffffff"><g>
<g transform="translate(144,24) scale(2.06)"><path d="M4.7,0.4c-1.1,0.4-2.4,0.4-3.5,0L0,0c0,3.3,2.7,6,6,6V0L4.7,0.4z"></path></g>
<g transform="translate(156,24) scale(2.06)"><rect width="6" height="6"></rect></g>
<g transform="translate(168,24) scale(2.06)"><path d="M6,6H0V0l3,0c1.7,0,3,1.3,3,3V6z"></path></g>
<g transform="translate(204,24) scale(2.06)"><path d="M4.7,0.4c-1.1,0.4-2.4,0.4-3.5,0L0,0c0,3.3,2.7,6,6,6V0L4.7,0.4z"></path></g>
<g transform="translate(216,24) scale(2.06)"><path d="M0,0v6l1.3-0.4c1.1-0.4,2.4-0.4,3.5,0L6,6C6,2.7,3.3,0,0,0z"></path></g>
<g transform="translate(240,24) scale(2.06)"><path d="M6,6H0V3c0-1.7,1.3-3,3-3l3,0V6z"></path></g>
<g transform="translate(252,24) scale(2.06)"><rect width="6" height="6"></rect></g>
<g transform="translate(264,24) scale(2.06)"><path d="M0,0v6l1.3-0.4c1.1-0.4,2.4-0.4,3.5,0L6,6C6,2.7,3.3,0,0,0z"></path></g>
<g transform="translate(132,36) scale(2.06)"><circle cx="3" cy="3" r="3"></circle></g>
<g transform="translate(168,36) scale(2.06)"><rect width="6" height="6"></rect></g>
<g transform="translate(228,36) scale(2.06)"><path d="M4.7,0.4c-1.1,0.4-2.4,0.4-3.5,0L0,0c0,3.3,2.7,6,6,6V0L4.7,0.4z"></path></g>
<g transform="translate(240,36) scale(2.06)"><path d="M3,6H0V0l6,0v3C6,4.7,4.7,6,3,6z"></path></g>
<g transform="translate(120,48) scale(2.06)"><path d="M6,6H0v0c0-3.3,2.7-6,6-6h0L5.6,1.3c-0.4,1.1-0.4,2.4,0,3.5L6,6z"></path></g>
<g transform="translate(144,48) scale(2.06)"><path d="M6,6H0V3c0-1.7,1.3-3,3-3l3,0V6z"></path></g>
<g transform="translate(156,48) scale(2.06)"><rect width="6" height="6"></rect></g>
<g transform="translate(168,48) scale(2.06)"><rect width="6" height="6"></rect></g>
<g transform="translate(192,48) scale(2.06)"><circle cx="3" cy="3" r="3"></circle></g>
<g transform="translate(216,48) scale(2.06)"><path d="M6,6H0v0c0-3.3,2.7-6,6-6h0L5.6,1.3c-0.4,1.1-0.4,2.4,0,3.5L6,6z"></path></g>
<g transform="translate(252,48) scale(2.06)"><path d="M6,6H0V3c0-1.7,1.3-3,3-3l3,0V6z"></path></g>
<g transform="translate(264,48) scale(2.06)"><path d="M0,0v6l1.3-0.4c1.1-0.4,2.4-0.4,3.5,0L6,6C6,2.7,3.3,0,0,0z"></path></g>
<g transform="translate(120,60) scale(2.06)"><rect width="6" height="6"></rect></g>
<g transform="translate(144,60) scale(2.06)"><path d="M0,0l0.4,1.3c0.4,1.1,0.4,2.4,0,3.5L0,6c3.3,0,6-2.7,6-6H0z"></path></g>
<g transform="translate(168,60) scale(2.06)"><path d="M0,0l0.4,1.3c0.4,1.1,0.4,2.4,0,3.5L0,6c3.3,0,6-2.7,6-6H0z"></path></g>
<g transform="translate(216,60) scale(2.06)"><path d="M6,6H3C1.3,6,0,4.7,0,3V0l6,0V6z"></path></g>
<g transform="translate(228,60) scale(2.06)"><path d="M6,6H0V0l3,0c1.7,0,3,1.3,3,3V6z"></path></g>
<g transform="translate(252,60) scale(2.06)"><rect width="6" height="6"></rect></g>
<g transform="translate(120,72) scale(2.06)"><rect width="6" height="6"></rect></g>
<g transform="translate(180,72) scale(2.06)"><path d="M6,6H0V3c0-1.7,1.3-3,3-3l3,0V6z"></path></g>
<g transform="translate(192,72) scale(2.06)"><rect width="6" height="6"></rect></g>
<g transform="translate(204,72) scale(2.06)"><path d="M6,6H0V0l3,0c1.7,0,3,1.3,3,3V6z"></path></g>
<g transform="translate(228,72) scale(2.06)"><rect width="6" height="6"></rect></g>
<g transform="translate(240,72) scale(2.06)"><rect width="6" height="6"></rect></g>
<g transform="translate(252,72) scale(2.06)"><path d="M3,6H0V0l6,0v3C6,4.7,4.7,6,3,6z"></path></g>
<g transform="translate(120,84) scale(2.06)"><rect width="6" height="6"></rect></g>
<g transform="translate(132,84) scale(2.06)"><rect width="6" height="6"></rect></g>
<g transform="translate(144,84) scale(2.06)"><path d="M6,6H0V0l3,0c1.7,0,3,1.3,3,3V6z"></path></g>
<g transform="translate(180,84) scale(2.06)"><path d="M6,6H3C1.3,6,0,4.7,0,3V0l6,0V6z"></path></g>
<g transform="translate(192,84) scale(2.06)"><rect width="6" height="6"></rect></g>
<g transform="translate(204,84) scale(2.06)"><rect width="6" height="6"></rect></g>
<g transform="translate(216,84) scale(2.06)"><rect width="6" height="6"></rect></g>
<g transform="translate(228,84) scale(2.06)"><path d="M3,6H0V0l6,0v3C6,4.7,4.7,6,3,6z"></path></g>
<g transform="translate(120,96) scale(2.06)"><rect width="6" height="6"></rect></g>
<g transform="translate(144,96) scale(2.06)"><path d="M0,0l0.4,1.3c0.4,1.1,0.4,2.4,0,3.5L0,6c3.3,0,6-2.7,6-6H0z"></path></g>
<g transform="translate(168,96) scale(2.06)"><path d="M6,6H0v0c0-3.3,2.7-6,6-6h0L5.6,1.3c-0.4,1.1-0.4,2.4,0,3.5L6,6z"></path></g>
<g transform="translate(192,96) scale(2.06)"><path d="M0,0l0.4,1.3c0.4,1.1,0.4,2.4,0,3.5L0,6c3.3,0,6-2.7,6-6H0z"></path></g>
<g transform="translate(216,96) scale(2.06)"><path d="M0,0l0.4,1.3c0.4,1.1,0.4,2.4,0,3.5L0,6c3.3,0,6-2.7,6-6H0z"></path></g>
<g transform="translate(240,96) scale(2.06)"><circle cx="3" cy="3" r="3"></circle></g>
<g transform="translate(264,96) scale(2.06)"><path d="M6,6H0v0c0-3.3,2.7-6,6-6h0L5.6,1.3c-0.4,1.1-0.4,2.4,0,3.5L6,6z"></path></g>
<g transform="translate(120,108) scale(2.06)"><path d="M6,6H3C1.3,6,0,4.7,0,3V0l6,0V6z"></path></g>
<g transform="translate(132,108) scale(2.06)"><path d="M6,6H0V0l3,0c1.7,0,3,1.3,3,3V6z"></path></g>
<g transform="translate(156,108) scale(2.06)"><path d="M4.7,0.4c-1.1,0.4-2.4,0.4-3.5,0L0,0c0,3.3,2.7,6,6,6V0L4.7,0.4z"></path></g>
<g transform="translate(168,108) scale(2.06)"><rect width="6" height="6"></rect></g>
<g transform="translate(180,108) scale(2.06)"><path d="M0,0v6l1.3-0.4c1.1-0.4,2.4-0.4,3.5,0L6,6C6,2.7,3.3,0,0,0z"></path></g>
<g transform="translate(204,108) scale(2.06)"><path d="M6,6H0v0c0-3.3,2.7-6,6-6h0L5.6,1.3c-0.4,1.1-0.4,2.4,0,3.5L6,6z"></path></g>
<g transform="translate(264,108) scale(2.06)"><rect width="6" height="6"></rect></g>
<g transform="translate(24,120) scale(2.06)"><circle cx="3" cy="3" r="3"></circle></g>
<g transform="translate(48,120) scale(2.06)"><path d="M4.7,0.4c-1.1,0.4-2.4,0.4-3.5,0L0,0c0,3.3,2.7,6,6,6V0L4.7,0.4z"></path></g>
<g transform="translate(60,120) scale(2.06)"><rect width="6" height="6"></rect></g>
<g transform="translate(72,120) scale(2.06)"><rect width="6" height="6"></rect></g>
<g transform="translate(84,120) scale(2.06)"><rect width="6" height="6"></rect></g>
<g transform="translate(96,120) scale(2.06)"><path d="M0,0v6l1.3-0.4c1.1-0.4,2.4-0.4,3.5,0L6,6C6,2.7,3.3,0,0,0z"></path></g>
<g transform="translate(132,120) scale(2.06)"><rect width="6" height="6"></rect></g>
<g transform="translate(168,120) scale(2.06)"><path d="M0,0l0.4,1.3c0.4,1.1,0.4,2.4,0,3.5L0,6c3.3,0,6-2.7,6-6H0z"></path></g>
<g transform="translate(192,120) scale(2.06)"><path d="M4.7,0.4c-1.1,0.4-2.4,0.4-3.5,0L0,0c0,3.3,2.7,6,6,6V0L4.7,0.4z"></path></g>
<g transform="translate(204,120) scale(2.06)"><rect width="6" height="6"></rect></g>
<g transform="translate(228,120) scale(2.06)"><path d="M6,6H0v0c0-3.3,2.7-6,6-6h0L5.6,1.3c-0.4,1.1-0.4,2.4,0,3.5L6,6z"></path></g>
<g transform="translate(264,120) scale(2.06)"><rect width="6" height="6"></rect></g>
<g transform="translate(288,120) scale(2.06)"><path d="M6,6H0V3c0-1.7,1.3-3,3-3l3,0V6z"></path></g>
<g transform="translate(300,120) scale(2.06)"><rect width="6" height="6"></rect></g>
<g transform="translate(312,120) scale(2.06)"><rect width="6" height="6"></rect></g>
<g transform="translate(324,120) scale(2.06)"><rect width="6" height="6"></rect></g>
<g transform="translate(336,120) scale(2.06)"><path d="M0,0v6l1.3-0.4c1.1-0.4,2.4-0.4,3.5,0L6,6C6,2.7,3.3,0,0,0z"></path></g>
<g transform="translate(72,132) scale(2.06)"><path d="M0,0l0.4,1.3c0.4,1.1,0.4,2.4,0,3.5L0,6c3.3,0,6-2.7,6-6H0z"></path></g>
<g transform="translate(108,132) scale(2.06)"><path d="M4.7,0.4c-1.1,0.4-2.4,0.4-3.5,0L0,0c0,3.3,2.7,6,6,6V0L4.7,0.4z"></path></g>
<g transform="translate(120,132) scale(2.06)"><rect width="6" height="6"></rect></g>
<g transform="translate(132,132) scale(2.06)"><rect width="6" height="6"></rect></g>
<g transform="translate(204,132) scale(2.06)"><path d="M6,6H3C1.3,6,0,4.7,0,3V0l6,0V6z"></path></g>
<g transform="translate(216,132) scale(2.06)"><rect width="6" height="6"></rect></g>
<g transform="translate(228,132) scale(2.06)"><rect width="6" height="6"></rect></g>
<g transform="translate(240,132) scale(2.06)"><rect width="6" height="6"></rect></g>
<g transform="translate(252,132) scale(2.06)"><rect width="6" height="6"></rect></g>
<g transform="translate(264,132) scale(2.06)"><path d="M3,6H0V0l6,0v3C6,4.7,4.7,6,3,6z"></path></g>
<g transform="translate(288,132) scale(2.06)"><path d="M6,6H3C1.3,6,0,4.7,0,3V0l6,0V6z"></path></g>
<g transform="translate(300,132) scale(2.06)"><rect width="6" height="6"></rect></g>
<g transform="translate(312,132) scale(2.06)"><path d="M3,6H0V0l6,0v3C6,4.7,4.7,6,3,6z"></path></g>
<g transform="translate(360,132) scale(2.06)"><circle cx="3" cy="3" r="3"></circle></g>
<g transform="translate(36,144) scale(2.06)"><path d="M6,6H0V3c0-1.7,1.3-3,3-3l3,0V6z"></path></g>
<g transform="translate(48,144) scale(2.06)"><rect width="6" height="6"></rect></g>
<g transform="translate(60,144) scale(2.06)"><path d="M0,0v6l1.3-0.4c1.1-0.4,2.4-0.4,3.5,0L6,6C6,2.7,3.3,0,0,0z"></path></g>
<g transform="translate(84,144) scale(2.06)"><path d="M6,6H0V3c0-1.7,1.3-3,3-3l3,0V6z"></path></g>
<g transform="translate(96,144) scale(2.06)"><path d="M0,0v6l1.3-0.4c1.1-0.4,2.4-0.4,3.5,0L6,6C6,2.7,3.3,0,0,0z"></path></g>
<g transform="translate(132,144) scale(2.06)"><path d="M6,6H3C1.3,6,0,4.7,0,3V0l6,0V6z"></path></g>
<g transform="translate(144,144) scale(2.06)"><rect width="6" height="6"></rect></g>
<g transform="translate(156,144) scale(2.06)"><path d="M6,6H0V0l3,0c1.7,0,3,1.3,3,3V6z"></path></g>
<g transform="translate(276,144) scale(2.06)"><circle cx="3" cy="3" r="3"></circle></g>
<g transform="translate(36,156) scale(2.06)"><path d="M6,6H3C1.3,6,0,4.7,0,3V0l6,0V6z"></path></g>
<g transform="translate(48,156) scale(2.06)"><rect width="6" height="6"></rect></g>
<g transform="translate(84,156) scale(2.06)"><rect width="6" height="6"></rect></g>
<g transform="translate(120,156) scale(2.06)"><circle cx="3" cy="3" r="3"></circle></g>
<g transform="translate(156,156) scale(2.06)"><path d="M6,6H3C1.3,6,0,4.7,0,3V0l6,0V6z"></path></g>
<g transform="translate(168,156) scale(2.06)"><path d="M6,6H0V0l3,0c1.7,0,3,1.3,3,3V6z"></path></g>
<g transform="translate(192,156) scale(2.06)"><circle cx="3" cy="3" r="3"></circle></g>
<g transform="translate(216,156) scale(2.06)"><path d="M6,6H0v0c0-3.3,2.7-6,6-6h0L5.6,1.3c-0.4,1.1-0.4,2.4,0,3.5L6,6z"></path></g>
<g transform="translate(264,156) scale(2.06)"><circle cx="3" cy="3" r="3"></circle></g>
<g transform="translate(300,156) scale(2.06)"><circle cx="3" cy="3" r="3"></circle></g>
<g transform="translate(324,156) scale(2.06)"><path d="M6,6H0v0c0-3.3,2.7-6,6-6h0L5.6,1.3c-0.4,1.1-0.4,2.4,0,3.5L6,6z"></path></g>
<g transform="translate(348,156) scale(2.06)"><circle cx="3" cy="3" r="3"></circle></g>
<g transform="translate(48,168) scale(2.06)"><rect width="6" height="6"></rect></g>
<g transform="translate(60,168) scale(2.06)"><path d="M6,6H0V0l3,0c1.7,0,3,1.3,3,3V6z"></path></g>
<g transform="translate(84,168) scale(2.06)"><rect width="6" height="6"></rect></g>
<g transform="translate(96,168) scale(2.06)"><rect width="6" height="6"></rect></g>
<g transform="translate(108,168) scale(2.06)"><path d="M0,0v6l1.3-0.4c1.1-0.4,2.4-0.4,3.5,0L6,6C6,2.7,3.3,0,0,0z"></path></g>
<g transform="translate(132,168) scale(2.06)"><path d="M6,6H0v0c0-3.3,2.7-6,6-6h0L5.6,1.3c-0.4,1.1-0.4,2.4,0,3.5L6,6z"></path></g>
<g transform="translate(168,168) scale(2.06)"><path d="M0,0l0.4,1.3c0.4,1.1,0.4,2.4,0,3.5L0,6c3.3,0,6-2.7,6-6H0z"></path></g>
<g transform="translate(216,168) scale(2.06)"><path d="M6,6H3C1.3,6,0,4.7,0,3V0l6,0V6z"></path></g>
<g transform="translate(228,168) scale(2.06)"><rect width="6" height="6"></rect></g>
<g transform="translate(240,168) scale(2.06)"><rect width="6" height="6"></rect></g>
<g transform="translate(252,168) scale(2.06)"><path d="M6,6H0V0l3,0c1.7,0,3,1.3,3,3V6z"></path></g>
<g transform="translate(324,168) scale(2.06)"><path d="M6,6H3C1.3,6,0,4.7,0,3V0l6,0V6z"></path></g>
<g transform="translate(336,168) scale(2.06)"><path d="M0,0v6l1.3-0.4c1.1-0.4,2.4-0.4,3.5,0L6,6C6,2.7,3.3,0,0,0z"></path></g>
<g transform="translate(24,180) scale(2.06)"><circle cx="3" cy="3" r="3"></circle></g>
<g transform="translate(48,180) scale(2.06)"><rect width="6" height="6"></rect></g>
<g transform="translate(60,180) scale(2.06)"><rect width="6" height="6"></rect></g>
<g transform="translate(72,180) scale(2.06)"><rect width="6" height="6"></rect></g>
<g transform="translate(84,180) scale(2.06)"><rect width="6" height="6"></rect></g>
<g transform="translate(132,180) scale(2.06)"><rect width="6" height="6"></rect></g>
<g transform="translate(144,180) scale(2.06)"><path d="M6,6H0V0l3,0c1.7,0,3,1.3,3,3V6z"></path></g>
<g transform="translate(180,180) scale(2.06)"><path d="M6,6H0V3c0-1.7,1.3-3,3-3l3,0V6z"></path></g>
<g transform="translate(192,180) scale(2.06)"><rect width="6" height="6"></rect></g>
<g transform="translate(204,180) scale(2.06)"><path d="M6,6H0V0l3,0c1.7,0,3,1.3,3,3V6z"></path></g>
<g transform="translate(228,180) scale(2.06)"><rect width="6" height="6"></rect></g>
<g transform="translate(240,180) scale(2.06)"><rect width="6" height="6"></rect></g>
<g transform="translate(252,180) scale(2.06)"><rect width="6" height="6"></rect></g>
<g transform="translate(264,180) scale(2.06)"><rect width="6" height="6"></rect></g>
<g transform="translate(276,180) scale(2.06)"><rect width="6" height="6"></rect></g>
<g transform="translate(288,180) scale(2.06)"><path d="M6,6H0V0l3,0c1.7,0,3,1.3,3,3V6z"></path></g>
<g transform="translate(312,180) scale(2.06)"><path d="M6,6H0v0c0-3.3,2.7-6,6-6h0L5.6,1.3c-0.4,1.1-0.4,2.4,0,3.5L6,6z"></path></g>
<g transform="translate(360,180) scale(2.06)"><circle cx="3" cy="3" r="3"></circle></g>
<g transform="translate(36,192) scale(2.06)"><path d="M4.7,0.4c-1.1,0.4-2.4,0.4-3.5,0L0,0c0,3.3,2.7,6,6,6V0L4.7,0.4z"></path></g>
<g transform="translate(48,192) scale(2.06)"><rect width="6" height="6"></rect></g>
<g transform="translate(60,192) scale(2.06)"><rect width="6" height="6"></rect></g>
<g transform="translate(84,192) scale(2.06)"><rect width="6" height="6"></rect></g>
<g transform="translate(96,192) scale(2.06)"><rect width="6" height="6"></rect></g>
<g transform="translate(108,192) scale(2.06)"><path d="M0,0v6l1.3-0.4c1.1-0.4,2.4-0.4,3.5,0L6,6C6,2.7,3.3,0,0,0z"></path></g>
<g transform="translate(132,192) scale(2.06)"><path d="M6,6H3C1.3,6,0,4.7,0,3V0l6,0V6z"></path></g>
<g transform="translate(144,192) scale(2.06)"><path d="M3,6H0V0l6,0v3C6,4.7,4.7,6,3,6z"></path></g>
<g transform="translate(180,192) scale(2.06)"><rect width="6" height="6"></rect></g>
<g transform="translate(192,192) scale(2.06)"><rect width="6" height="6"></rect></g>
<g transform="translate(204,192) scale(2.06)"><rect width="6" height="6"></rect></g>
<g transform="translate(216,192) scale(2.06)"><rect width="6" height="6"></rect></g>
<g transform="translate(228,192) scale(2.06)"><path d="M3,6H0V0l6,0v3C6,4.7,4.7,6,3,6z"></path></g>
<g transform="translate(264,192) scale(2.06)"><rect width="6" height="6"></rect></g>
<g transform="translate(288,192) scale(2.06)"><rect width="6" height="6"></rect></g>
<g transform="translate(312,192) scale(2.06)"><rect width="6" height="6"></rect></g>
<g transform="translate(324,192) scale(2.06)"><rect width="6" height="6"></rect></g>
<g transform="translate(336,192) scale(2.06)"><path d="M0,0v6l1.3-0.4c1.1-0.4,2.4-0.4,3.5,0L6,6C6,2.7,3.3,0,0,0z"></path></g>
<g transform="translate(48,204) scale(2.06)"><rect width="6" height="6"></rect></g>
<g transform="translate(60,204) scale(2.06)"><rect width="6" height="6"></rect></g>
<g transform="translate(84,204) scale(2.06)"><rect width="6" height="6"></rect></g>
<g transform="translate(168,204) scale(2.06)"><path d="M6,6H0V3c0-1.7,1.3-3,3-3l3,0V6z"></path></g>
<g transform="translate(180,204) scale(2.06)"><path d="M3,6H0V0l6,0v3C6,4.7,4.7,6,3,6z"></path></g>
<g transform="translate(204,204) scale(2.06)"><rect width="6" height="6"></rect></g>
<g transform="translate(264,204) scale(2.06)"><rect width="6" height="6"></rect></g>
<g transform="translate(288,204) scale(2.06)"><path d="M0,0l0.4,1.3c0.4,1.1,0.4,2.4,0,3.5L0,6c3.3,0,6-2.7,6-6H0z"></path></g>
<g transform="translate(312,204) scale(2.06)"><path d="M0,0l0.4,1.3c0.4,1.1,0.4,2.4,0,3.5L0,6c3.3,0,6-2.7,6-6H0z"></path></g>
<g transform="translate(348,204) scale(2.06)"><circle cx="3" cy="3" r="3"></circle></g>
<g transform="translate(24,216) scale(2.06)"><path d="M6,6H0v0c0-3.3,2.7-6,6-6h0L5.6,1.3c-0.4,1.1-0.4,2.4,0,3.5L6,6z"></path></g>
<g transform="translate(48,216) scale(2.06)"><rect width="6" height="6"></rect></g>
<g transform="translate(60,216) scale(2.06)"><path d="M3,6H0V0l6,0v3C6,4.7,4.7,6,3,6z"></path></g>
<g transform="translate(84,216) scale(2.06)"><path d="M6,6H3C1.3,6,0,4.7,0,3V0l6,0V6z"></path></g>
<g transform="translate(96,216) scale(2.06)"><rect width="6" height="6"></rect></g>
<g transform="translate(108,216) scale(2.06)"><path d="M0,0v6l1.3-0.4c1.1-0.4,2.4-0.4,3.5,0L6,6C6,2.7,3.3,0,0,0z"></path></g>
<g transform="translate(168,216) scale(2.06)"><rect width="6" height="6"></rect></g>
<g transform="translate(192,216) scale(2.06)"><path d="M4.7,0.4c-1.1,0.4-2.4,0.4-3.5,0L0,0c0,3.3,2.7,6,6,6V0L4.7,0.4z"></path></g>
<g transform="translate(204,216) scale(2.06)"><rect width="6" height="6"></rect></g>
<g transform="translate(264,216) scale(2.06)"><rect width="6" height="6"></rect></g>
<g transform="translate(300,216) scale(2.06)"><path d="M6,6H0v0c0-3.3,2.7-6,6-6h0L5.6,1.3c-0.4,1.1-0.4,2.4,0,3.5L6,6z"></path></g>
<g transform="translate(324,216) scale(2.06)"><path d="M4.7,0.4c-1.1,0.4-2.4,0.4-3.5,0L0,0c0,3.3,2.7,6,6,6V0L4.7,0.4z"></path></g>
<g transform="translate(336,216) scale(2.06)"><path d="M6,6H0V0l3,0c1.7,0,3,1.3,3,3V6z"></path></g>
<g transform="translate(24,228) scale(2.06)"><rect width="6" height="6"></rect></g>
<g transform="translate(36,228) scale(2.06)"><rect width="6" height="6"></rect></g>
<g transform="translate(48,228) scale(2.06)"><rect width="6" height="6"></rect></g>
<g transform="translate(120,228) scale(2.06)"><path d="M6,6H0v0c0-3.3,2.7-6,6-6h0L5.6,1.3c-0.4,1.1-0.4,2.4,0,3.5L6,6z"></path></g>
<g transform="translate(144,228) scale(2.06)"><path d="M6,6H0v0c0-3.3,2.7-6,6-6h0L5.6,1.3c-0.4,1.1-0.4,2.4,0,3.5L6,6z"></path></g>
<g transform="translate(168,228) scale(2.06)"><rect width="6" height="6"></rect></g>
<g transform="translate(204,228) scale(2.06)"><path d="M6,6H3C1.3,6,0,4.7,0,3V0l6,0V6z"></path></g>
<g transform="translate(216,228) scale(2.06)"><path d="M0,0v6l1.3-0.4c1.1-0.4,2.4-0.4,3.5,0L6,6C6,2.7,3.3,0,0,0z"></path></g>
<g transform="translate(240,228) scale(2.06)"><path d="M4.7,0.4c-1.1,0.4-2.4,0.4-3.5,0L0,0c0,3.3,2.7,6,6,6V0L4.7,0.4z"></path></g>
<g transform="translate(252,228) scale(2.06)"><rect width="6" height="6"></rect></g>
<g transform="translate(264,228) scale(2.06)"><rect width="6" height="6"></rect></g>
<g transform="translate(276,228) scale(2.06)"><rect width="6" height="6"></rect></g>
<g transform="translate(288,228) scale(2.06)"><rect width="6" height="6"></rect></g>
<g transform="translate(300,228) scale(2.06)"><rect width="6" height="6"></rect></g>
<g transform="translate(312,228) scale(2.06)"><path d="M6,6H0V0l3,0c1.7,0,3,1.3,3,3V6z"></path></g>
<g transform="translate(336,228) scale(2.06)"><rect width="6" height="6"></rect></g>
<g transform="translate(360,228) scale(2.06)"><circle cx="3" cy="3" r="3"></circle></g>
<g transform="translate(24,240) scale(2.06)"><rect width="6" height="6"></rect></g>
<g transform="translate(48,240) scale(2.06)"><rect width="6" height="6"></rect></g>
<g transform="translate(72,240) scale(2.06)"><path d="M4.7,0.4c-1.1,0.4-2.4,0.4-3.5,0L0,0c0,3.3,2.7,6,6,6V0L4.7,0.4z"></path></g>
<g transform="translate(84,240) scale(2.06)"><rect width="6" height="6"></rect></g>
<g transform="translate(96,240) scale(2.06)"><path d="M0,0v6l1.3-0.4c1.1-0.4,2.4-0.4,3.5,0L6,6C6,2.7,3.3,0,0,0z"></path></g>
<g transform="translate(120,240) scale(2.06)"><path d="M0,0l0.4,1.3c0.4,1.1,0.4,2.4,0,3.5L0,6c3.3,0,6-2.7,6-6H0z"></path></g>
<g transform="translate(144,240) scale(2.06)"><rect width="6" height="6"></rect></g>
<g transform="translate(168,240) scale(2.06)"><rect width="6" height="6"></rect></g>
<g transform="translate(228,240) scale(2.06)"><circle cx="3" cy="3" r="3"></circle></g>
<g transform="translate(264,240) scale(2.06)"><path d="M0,0l0.4,1.3c0.4,1.1,0.4,2.4,0,3.5L0,6c3.3,0,6-2.7,6-6H0z"></path></g>
<g transform="translate(312,240) scale(2.06)"><rect width="6" height="6"></rect></g>
<g transform="translate(336,240) scale(2.06)"><path d="M0,0l0.4,1.3c0.4,1.1,0.4,2.4,0,3.5L0,6c3.3,0,6-2.7,6-6H0z"></path></g>
<g transform="translate(24,252) scale(2.06)"><rect width="6" height="6"></rect></g>
<g transform="translate(48,252) scale(2.06)"><rect width="6" height="6"></rect></g>
<g transform="translate(60,252) scale(2.06)"><path d="M6,6H0V0l3,0c1.7,0,3,1.3,3,3V6z"></path></g>
<g transform="translate(84,252) scale(2.06)"><path d="M0,0l0.4,1.3c0.4,1.1,0.4,2.4,0,3.5L0,6c3.3,0,6-2.7,6-6H0z"></path></g>
<g transform="translate(132,252) scale(2.06)"><path d="M6,6H0V3c0-1.7,1.3-3,3-3l3,0V6z"></path></g>
<g transform="translate(144,252) scale(2.06)"><rect width="6" height="6"></rect></g>
<g transform="translate(156,252) scale(2.06)"><rect width="6" height="6"></rect></g>
<g transform="translate(168,252) scale(2.06)"><path d="M3,6H0V0l6,0v3C6,4.7,4.7,6,3,6z"></path></g>
<g transform="translate(192,252) scale(2.06)"><circle cx="3" cy="3" r="3"></circle></g>
<g transform="translate(216,252) scale(2.06)"><circle cx="3" cy="3" r="3"></circle></g>
<g transform="translate(276,252) scale(2.06)"><path d="M6,6H0v0c0-3.3,2.7-6,6-6h0L5.6,1.3c-0.4,1.1-0.4,2.4,0,3.5L6,6z"></path></g>
<g transform="translate(312,252) scale(2.06)"><rect width="6" height="6"></rect></g>
<g transform="translate(348,252) scale(2.06)"><path d="M6,6H0v0c0-3.3,2.7-6,6-6h0L5.6,1.3c-0.4,1.1-0.4,2.4,0,3.5L6,6z"></path></g>
<g transform="translate(24,264) scale(2.06)"><path d="M0,0l0.4,1.3c0.4,1.1,0.4,2.4,0,3.5L0,6c3.3,0,6-2.7,6-6H0z"></path></g>
<g transform="translate(48,264) scale(2.06)"><path d="M6,6H3C1.3,6,0,4.7,0,3V0l6,0V6z"></path></g>
<g transform="translate(60,264) scale(2.06)"><path d="M3,6H0V0l6,0v3C6,4.7,4.7,6,3,6z"></path></g>
<g transform="translate(96,264) scale(2.06)"><path d="M4.7,0.4c-1.1,0.4-2.4,0.4-3.5,0L0,0c0,3.3,2.7,6,6,6V0L4.7,0.4z"></path></g>
<g transform="translate(108,264) scale(2.06)"><rect width="6" height="6"></rect></g>
<g transform="translate(120,264) scale(2.06)"><rect width="6" height="6"></rect></g>
<g transform="translate(132,264) scale(2.06)"><rect width="6" height="6"></rect></g>
<g transform="translate(144,264) scale(2.06)"><path d="M3,6H0V0l6,0v3C6,4.7,4.7,6,3,6z"></path></g>
<g transform="translate(264,264) scale(2.06)"><path d="M6,6H0V3c0-1.7,1.3-3,3-3l3,0V6z"></path></g>
<g transform="translate(276,264) scale(2.06)"><rect width="6" height="6"></rect></g>
<g transform="translate(288,264) scale(2.06)"><rect width="6" height="6"></rect></g>
<g transform="translate(300,264) scale(2.06)"><rect width="6" height="6"></rect></g>
<g transform="translate(312,264) scale(2.06)"><rect width="6" height="6"></rect></g>
<g transform="translate(336,264) scale(2.06)"><path d="M6,6H0V3c0-1.7,1.3-3,3-3l3,0V6z"></path></g>
<g transform="translate(348,264) scale(2.06)"><rect width="6" height="6"></rect></g>
<g transform="translate(360,264) scale(2.06)"><path d="M6,6H0V0l3,0c1.7,0,3,1.3,3,3V6z"></path></g>
<g transform="translate(120,276) scale(2.06)"><path d="M6,6H3C1.3,6,0,4.7,0,3V0l6,0V6z"></path></g>
<g transform="translate(132,276) scale(2.06)"><path d="M3,6H0V0l6,0v3C6,4.7,4.7,6,3,6z"></path></g>
<g transform="translate(168,276) scale(2.06)"><path d="M4.7,0.4c-1.1,0.4-2.4,0.4-3.5,0L0,0c0,3.3,2.7,6,6,6V0L4.7,0.4z"></path></g>
<g transform="translate(180,276) scale(2.06)"><rect width="6" height="6"></rect></g>
<g transform="translate(192,276) scale(2.06)"><rect width="6" height="6"></rect></g>
<g transform="translate(204,276) scale(2.06)"><path d="M6,6H0V0l3,0c1.7,0,3,1.3,3,3V6z"></path></g>
<g transform="translate(240,276) scale(2.06)"><circle cx="3" cy="3" r="3"></circle></g>
<g transform="translate(264,276) scale(2.06)"><rect width="6" height="6"></rect></g>
<g transform="translate(312,276) scale(2.06)"><rect width="6" height="6"></rect></g>
<g transform="translate(324,276) scale(2.06)"><rect width="6" height="6"></rect></g>
<g transform="translate(336,276) scale(2.06)"><rect width="6" height="6"></rect></g>
<g transform="translate(348,276) scale(2.06)"><rect width="6" height="6"></rect></g>
<g transform="translate(360,276) scale(2.06)"><path d="M3,6H0V0l6,0v3C6,4.7,4.7,6,3,6z"></path></g>
<g transform="translate(144,288) scale(2.06)"><path d="M6,6H0v0c0-3.3,2.7-6,6-6h0L5.6,1.3c-0.4,1.1-0.4,2.4,0,3.5L6,6z"></path></g>
<g transform="translate(180,288) scale(2.06)"><rect width="6" height="6"></rect></g>
<g transform="translate(192,288) scale(2.06)"><rect width="6" height="6"></rect></g>
<g transform="translate(204,288) scale(2.06)"><rect width="6" height="6"></rect></g>
<g transform="translate(216,288) scale(2.06)"><path d="M0,0v6l1.3-0.4c1.1-0.4,2.4-0.4,3.5,0L6,6C6,2.7,3.3,0,0,0z"></path></g>
<g transform="translate(252,288) scale(2.06)"><path d="M6,6H0V3c0-1.7,1.3-3,3-3l3,0V6z"></path></g>
<g transform="translate(264,288) scale(2.06)"><rect width="6" height="6"></rect></g>
<g transform="translate(288,288) scale(2.06)"><circle cx="3" cy="3" r="3"></circle></g>
<g transform="translate(312,288) scale(2.06)"><rect width="6" height="6"></rect></g>
<g transform="translate(324,288) scale(2.06)"><rect width="6" height="6"></rect></g>
<g transform="translate(336,288) scale(2.06)"><path d="M3,6H0V0l6,0v3C6,4.7,4.7,6,3,6z"></path></g>
<g transform="translate(120,300) scale(2.06)"><path d="M6,6H0v0c0-3.3,2.7-6,6-6h0L5.6,1.3c-0.4,1.1-0.4,2.4,0,3.5L6,6z"></path></g>
<g transform="translate(144,300) scale(2.06)"><rect width="6" height="6"></rect></g>
<g transform="translate(180,300) scale(2.06)"><path d="M0,0l0.4,1.3c0.4,1.1,0.4,2.4,0,3.5L0,6c3.3,0,6-2.7,6-6H0z"></path></g>
<g transform="translate(204,300) scale(2.06)"><path d="M0,0l0.4,1.3c0.4,1.1,0.4,2.4,0,3.5L0,6c3.3,0,6-2.7,6-6H0z"></path></g>
<g transform="translate(252,300) scale(2.06)"><path d="M6,6H3C1.3,6,0,4.7,0,3V0l6,0V6z"></path></g>
<g transform="translate(264,300) scale(2.06)"><rect width="6" height="6"></rect></g>
<g transform="translate(312,300) scale(2.06)"><rect width="6" height="6"></rect></g>
<g transform="translate(360,300) scale(2.06)"><path d="M6,6H0v0c0-3.3,2.7-6,6-6h0L5.6,1.3c-0.4,1.1-0.4,2.4,0,3.5L6,6z"></path></g>
<g transform="translate(120,312) scale(2.06)"><rect width="6" height="6"></rect></g>
<g transform="translate(132,312) scale(2.06)"><rect width="6" height="6"></rect></g>
<g transform="translate(144,312) scale(2.06)"><path d="M3,6H0V0l6,0v3C6,4.7,4.7,6,3,6z"></path></g>
<g transform="translate(168,312) scale(2.06)"><path d="M6,6H0v0c0-3.3,2.7-6,6-6h0L5.6,1.3c-0.4,1.1-0.4,2.4,0,3.5L6,6z"></path></g>
<g transform="translate(192,312) scale(2.06)"><circle cx="3" cy="3" r="3"></circle></g>
<g transform="translate(216,312) scale(2.06)"><circle cx="3" cy="3" r="3"></circle></g>
<g transform="translate(264,312) scale(2.06)"><rect width="6" height="6"></rect></g>
<g transform="translate(276,312) scale(2.06)"><rect width="6" height="6"></rect></g>
<g transform="translate(288,312) scale(2.06)"><rect width="6" height="6"></rect></g>
<g transform="translate(300,312) scale(2.06)"><rect width="6" height="6"></rect></g>
<g transform="translate(312,312) scale(2.06)"><path d="M3,6H0V0l6,0v3C6,4.7,4.7,6,3,6z"></path></g>
<g transform="translate(336,312) scale(2.06)"><path d="M6,6H0v0c0-3.3,2.7-6,6-6h0L5.6,1.3c-0.4,1.1-0.4,2.4,0,3.5L6,6z"></path></g>
<g transform="translate(360,312) scale(2.06)"><path d="M0,0l0.4,1.3c0.4,1.1,0.4,2.4,0,3.5L0,6c3.3,0,6-2.7,6-6H0z"></path></g>
<g transform="translate(120,324) scale(2.06)"><rect width="6" height="6"></rect></g>
<g transform="translate(132,324) scale(2.06)"><rect width="6" height="6"></rect></g>
<g transform="translate(168,324) scale(2.06)"><rect width="6" height="6"></rect></g>
<g transform="translate(228,324) scale(2.06)"><path d="M4.7,0.4c-1.1,0.4-2.4,0.4-3.5,0L0,0c0,3.3,2.7,6,6,6V0L4.7,0.4z"></path></g>
<g transform="translate(240,324) scale(2.06)"><path d="M6,6H0V0l3,0c1.7,0,3,1.3,3,3V6z"></path></g>
<g transform="translate(264,324) scale(2.06)"><path d="M0,0l0.4,1.3c0.4,1.1,0.4,2.4,0,3.5L0,6c3.3,0,6-2.7,6-6H0z"></path></g>
<g transform="translate(300,324) scale(2.06)"><rect width="6" height="6"></rect></g>
<g transform="translate(324,324) scale(2.06)"><path d="M6,6H0V3c0-1.7,1.3-3,3-3l3,0V6z"></path></g>
<g transform="translate(336,324) scale(2.06)"><rect width="6" height="6"></rect></g>
<g transform="translate(120,336) scale(2.06)"><path d="M6,6H3C1.3,6,0,4.7,0,3V0l6,0V6z"></path></g>
<g transform="translate(132,336) scale(2.06)"><rect width="6" height="6"></rect></g>
<g transform="translate(156,336) scale(2.06)"><path d="M6,6H0V3c0-1.7,1.3-3,3-3l3,0V6z"></path></g>
<g transform="translate(168,336) scale(2.06)"><path d="M3,6H0V0l6,0v3C6,4.7,4.7,6,3,6z"></path></g>
<g transform="translate(204,336) scale(2.06)"><path d="M6,6H0V3c0-1.7,1.3-3,3-3l3,0V6z"></path></g>
<g transform="translate(216,336) scale(2.06)"><path d="M0,0v6l1.3-0.4c1.1-0.4,2.4-0.4,3.5,0L6,6C6,2.7,3.3,0,0,0z"></path></g>
<g transform="translate(240,336) scale(2.06)"><path d="M6,6H3C1.3,6,0,4.7,0,3V0l6,0V6z"></path></g>
<g transform="translate(252,336) scale(2.06)"><path d="M6,6H0V0l3,0c1.7,0,3,1.3,3,3V6z"></path></g>
<g transform="translate(276,336) scale(2.06)"><path d="M4.7,0.4c-1.1,0.4-2.4,0.4-3.5,0L0,0c0,3.3,2.7,6,6,6V0L4.7,0.4z"></path></g>
<g transform="translate(288,336) scale(2.06)"><rect width="6" height="6"></rect></g>
<g transform="translate(300,336) scale(2.06)"><rect width="6" height="6"></rect></g>
<g transform="translate(312,336) scale(2.06)"><rect width="6" height="6"></rect></g>
<g transform="translate(324,336) scale(2.06)"><rect width="6" height="6"></rect></g>
<g transform="translate(336,336) scale(2.06)"><rect width="6" height="6"></rect></g>
<g transform="translate(348,336) scale(2.06)"><path d="M6,6H0V0l3,0c1.7,0,3,1.3,3,3V6z"></path></g>
<g transform="translate(132,348) scale(2.06)"><rect width="6" height="6"></rect></g>
<g transform="translate(144,348) scale(2.06)"><rect width="6" height="6"></rect></g>
<g transform="translate(156,348) scale(2.06)"><path d="M3,6H0V0l6,0v3C6,4.7,4.7,6,3,6z"></path></g>
<g transform="translate(204,348) scale(2.06)"><rect width="6" height="6"></rect></g>
<g transform="translate(252,348) scale(2.06)"><rect width="6" height="6"></rect></g>
<g transform="translate(264,348) scale(2.06)"><path d="M0,0v6l1.3-0.4c1.1-0.4,2.4-0.4,3.5,0L6,6C6,2.7,3.3,0,0,0z"></path></g>
<g transform="translate(300,348) scale(2.06)"><path d="M6,6H3C1.3,6,0,4.7,0,3V0l6,0V6z"></path></g>
<g transform="translate(312,348) scale(2.06)"><rect width="6" height="6"></rect></g>
<g transform="translate(324,348) scale(2.06)"><path d="M3,6H0V0l6,0v3C6,4.7,4.7,6,3,6z"></path></g>
<g transform="translate(348,348) scale(2.06)"><path d="M0,0l0.4,1.3c0.4,1.1,0.4,2.4,0,3.5L0,6c3.3,0,6-2.7,6-6H0z"></path></g>
<g transform="translate(120,360) scale(2.06)"><path d="M4.7,0.4c-1.1,0.4-2.4,0.4-3.5,0L0,0c0,3.3,2.7,6,6,6V0L4.7,0.4z"></path></g>
<g transform="translate(132,360) scale(2.06)"><path d="M3,6H0V0l6,0v3C6,4.7,4.7,6,3,6z"></path></g>
<g transform="translate(168,360) scale(2.06)"><path d="M4.7,0.4c-1.1,0.4-2.4,0.4-3.5,0L0,0c0,3.3,2.7,6,6,6V0L4.7,0.4z"></path></g>
<g transform="translate(180,360) scale(2.06)"><path d="M0,0v6l1.3-0.4c1.1-0.4,2.4-0.4,3.5,0L6,6C6,2.7,3.3,0,0,0z"></path></g>
<g transform="translate(204,360) scale(2.06)"><path d="M6,6H3C1.3,6,0,4.7,0,3V0l6,0V6z"></path></g>
<g transform="translate(216,360) scale(2.06)"><rect width="6" height="6"></rect></g>
<g transform="translate(228,360) scale(2.06)"><path d="M0,0v6l1.3-0.4c1.1-0.4,2.4-0.4,3.5,0L6,6C6,2.7,3.3,0,0,0z"></path></g>
<g transform="translate(252,360) scale(2.06)"><path d="M0,0l0.4,1.3c0.4,1.1,0.4,2.4,0,3.5L0,6c3.3,0,6-2.7,6-6H0z"></path></g>
<g transform="translate(312,360) scale(2.06)"><path d="M0,0l0.4,1.3c0.4,1.1,0.4,2.4,0,3.5L0,6c3.3,0,6-2.7,6-6H0z"></path></g>
<g transform="translate(336,360) scale(2.06)"><circle cx="3" cy="3" r="3"></circle></g>
<g transform="translate(24,24)"><g transform="scale(6)"><path d="M0,0l0,7c0,3.9,3.1,7,7,7h7V7c0-3.9-3.1-7-7-7H0z M12,12H7c-2.8,0-5-2.2-5-5V2h5c2.8,0,5,2.2,5,5V12z"></path></g></g>
<g transform="translate(288,24)"><g transform="scale(6) rotate(90 7 7)"><path d="M0,0l0,7c0,3.9,3.1,7,7,7h7V7c0-3.9-3.1-7-7-7H0z M12,12H7c-2.8,0-5-2.2-5-5V2h5c2.8,0,5,2.2,5,5V12z"></path></g></g>
<g transform="translate(24,288)"><g transform="scale(6) rotate(-90 7 7)"><path d="M0,0l0,7c0,3.9,3.1,7,7,7h7V7c0-3.9-3.1-7-7-7H0z M12,12H7c-2.8,0-5-2.2-5-5V2h5c2.8,0,5,2.2,5,5V12z"></path></g></g>
<g transform="translate(48,48)"><g transform="scale(6)"><path d="M6,6H3C1.3,6,0,4.7,0,3l0-3l3,0c1.7,0,3,1.3,3,3V6z"></path></g></g>
<g transform="translate(312,48)"><g transform="scale(6) rotate(90 3 3)"><path d="M6,6H3C1.3,6,0,4.7,0,3l0-3l3,0c1.7,0,3,1.3,3,3V6z"></path></g></g>
<g transform="translate(48,312)"><g transform="scale(6) rotate(-90 3 3)"><path d="M6,6H3C1.3,6,0,4.7,0,3l0-3l3,0c1.7,0,3,1.3,3,3V6z"></path></g></g>
</g></g></mask></defs>
<rect width="396" height="396" fill="#ffffff" x="0" y="0"></rect>
<rect x="0" y="0" width="396" height="396" mask="url(#qrmask)" fill="#000000"></rect>
</svg>