<svg xmlns="http://www.w3.org/2000/svg" xml:space="preserve" xmlns:xlink="http://www.w3.org/1999/xlink" width="56" height="56" viewBox="0 0 396 396">
<defs><linearGradient id="pattern-gradient" x1="0%" y1="0%" x2="12%" y2="100%" gradientUnits="userSpaceOnUse"><stop offset="0%" stop-color="#27bd39"></stop><stop offset="100%" stop-color="#d7320d"></stop></linearGradient>
<mask id="qrmask"><g fill="#ffffff"><g>
<g transform="translate(132,24) scale(2.06)"><rect width="6" height="6"></rect></g>
<g transform="translate(156,24) scale(2.06)"><rect width="6" height="6"></rect></g>
<g transform="translate(180,24) scale(2.06)"><rect width="6" height="6"></rect></g>
<g transform="translate(192,24) scale(2.06)"><rect width="6" height="6"></rect></g>
<g transform="translate(204,24) scale(2.06)"><rect width="6" height="6"></rect></g>
<g transform="translate(240,24) scale(2.06)"><rect width="6" height="6"></rect></g>
<g transform="translate(252,24) scale(2.06)"><rect width="6" height="6"></rect></g>
<g transform="translate(264,24) scale(2.06)"><rect width="6" height="6"></rect></g>
<g transform="translate(144,36) scale(2.06)"><rect width="6" height="6"></rect></g>
<g transform="translate(180,36) scale(2.06)"><rect width="6" height="6"></rect></g>
<g transform="translate(192,36) scale(2.06)"><rect width="6" height="6"></rect></g>
<g transform="translate(204,36) scale(2.06)"><rect width="6" height="6"></rect></g>
<g transform="translate(216,36) scale(2.06)"><rect width="6" height="6"></rect></g>
<g transform="translate(228,36) scale(2.06)"><rect width="6" height="6"></rect></g>
<g transform="translate(240,36) scale(2.06)"><rect width="6" height="6"></rect></g>
<g transform="translate(120,48) scale(2.06)"><rect width="6" height="6"></rect></g>
<g transform="translate(168,48) scale(2.06)"><rect width="6" height="6"></rect></g>
<g transform="translate(180,48) scale(2.06)"><rect width="6" height="6"></rect></g>
<g transform="translate(204,48) scale(2.06)"><rect width="6" height="6"></rect></g>
<g transform="translate(252,48) scale(2.06)"><rect width="6" height="6"></rect></g>
<g transform="translate(264,48) scale(2.06)"><rect width="6" height="6"></rect></g>
<g transform="translate(120,60) scale(2.06)"><rect width="6" height="6"></rect></g>
<g transform="translate(132,60) scale(2.06)"><rect width="6" height="6"></rect></g>
<g transform="translate(144,60) scale(2.06)"><rect width="6" height="6"></rect></g>
<g transform="translate(192,60) scale(2.06)"><rect width="6" height="6"></rect></g>
<g transform="translate(204,60) scale(2.06)"><rect width="6" height="6"></rect></g>
<g transform="translate(228,60) scale(2.06)"><rect width="6" height="6"></rect></g>
<g transform="translate(252,60) scale(2.06)"><rect width="6" height="6"></rect></g>
<g transform="translate(120,72) scale(2.06)"><rect width="6" height="6"></rect></g>
<g transform="translate(132,72) scale(2.06)"><rect width="6" height="6"></rect></g>
<g transform="translate(168,72) scale(2.06)"><rect width="6" height="6"></rect></g>
<g transform="translate(204,72) scale(2.06)"><rect width="6" height="6"></rect></g>
<g transform="translate(216,72) scale(2.06)"><rect width="6" height="6"></rect></g>
<g transform="translate(228,72) scale(2.06)"><rect width="6" height="6"></rect></g>
<g transform="translate(240,72) scale(2.06)"><rect width="6" height="6"></rect></g>
<g transform="translate(252,72) scale(2.06)"><rect width="6" height="6"></rect></g>
<g transform="translate(120,84) scale(2.06)"><rect width="6" height="6"></rect></g>
<g transform="translate(132,84) scale(2.06)"><rect width="6" height="6"></rect></g>
<g transform="translate(156,84) scale(2.06)"><rect width="6" height="6"></rect></g>
<g transform="translate(168,84) scale(2.06)"><rect width="6" height="6"></rect></g>
<g transform="translate(228,84) scale(2.06)"><rect width="6" height="6"></rect></g>
<g transform="translate(120,96) scale(2.06)"><rect width="6" height="6"></rect></g>
<g transform="translate(144,96) scale(2.06)"><rect width="6" height="6"></rect></g>
<g transform="translate(168,96) scale(2.06)"><rect width="6" height="6"></rect></g>
<g transform="translate(192,96) scale(2.06)"><rect width="6" height="6"></rect></g>
<g transform="translate(216,96) scale(2.06)"><rect width="6" height="6"></rect></g>
<g transform="translate(240,96) scale(2.06)"><rect width="6" height="6"></rect></g>
<g transform="translate(264,96) scale(2.06)"><rect width="6" height="6"></rect></g>
<g transform="translate(120,108) scale(2.06)"><rect width="6" height="6"></rect></g>
<g transform="translate(192,108) scale(2.06)"><rect width="6" height="6"></rect></g>
<g transform="translate(216,108) scale(2.06)"><rect width="6" height="6"></rect></g>
<g transform="translate(264,108) scale(2.06)"><rect width="6" height="6"></rect></g>
<g transform="translate(24,120) scale(2.06)"><rect width="6" height="6"></rect></g>
<g transform="translate(48,120) scale(2.06)"><rect width="6" height="6"></rect></g>
<g transform="translate(60,120) scale(2.06)"><rect width="6" height="6"></rect></g>
<g transform="translate(72,120) scale(2.06)"><rect width="6" height="6"></rect></g>
<g transform="translate(84,120) scale(2.06)"><rect width="6" height="6"></rect></g>
<g transform="translate(96,120) scale(2.06)"><rect width="6" height="6"></rect></g>
<g transform="translate(132,120) scale(2.06)"><rect width="6" height="6"></rect></g>
<g transform="translate(156,120) scale(2.06)"><rect width="6" height="6"></rect></g>
<g transform="translate(228,120) scale(2.06)"><rect width="6" height="6"></rect></g>
<g transform="translate(264,120) scale(2.06)"><rect width="6" height="6"></rect></g>
<g transform="translate(288,120) scale(2.06)"><rect width="6" height="6"></rect></g>
<g transform="translate(300,120) scale(2.06)"><rect width="6" height="6"></rect></g>
<g transform="translate(312,120) scale(2.06)"><rect width="6" height="6"></rect></g>
<g transform="translate(324,120) scale(2.06)"><rect width="6" height="6"></rect></g>
<g transform="translate(336,120) scale(2.06)"><rect width="6" height="6"></rect></g>
<g transform="translate(24,132) scale(2.06)"><rect width="6" height="6"></rect></g>
<g transform="translate(36,132) scale(2.06)"><rect width="6" height="6"></rect></g>
<g transform="translate(72,132) scale(2.06)"><rect width="6" height="6"></rect></g>
<g transform="translate(108,132) scale(2.06)"><rect width="6" height="6"></rect></g>
<g transform="translate(120,132) scale(2.06)"><rect width="6" height="6"></rect></g>
<g transform="translate(132,132) scale(2.06)"><rect width="6" height="6"></rect></g>
<g transform="translate(144,132) scale(2.06)"><rect width="6" height="6"></rect></g>
<g transform="translate(180,132) scale(2.06)"><rect width="6" height="6"></rect></g>
<g transform="translate(192,132) scale(2.06)"><rect width="6" height="6"></rect></g>
<g transform="translate(204,132) scale(2.06)"><rect width="6" height="6"></rect></g>
<g transform="translate(228,132) scale(2.06)"><rect width="6" height="6"></rect></g>
<g transform="translate(240,132) scale(2.06)"><rect width="6" height="6"></rect></g>
<g transform="translate(252,132) scale(2.06)"><rect width="6" height="6"></rect></g>
<g transform="translate(264,132) scale(2.06)"><rect width="6" height="6"></rect></g>
<g transform="translate(288,132) scale(2.06)"><rect width="6" height="6"></rect></g>
<g transform="translate(300,132) scale(2.06)"><rect width="6" height="6"></rect></g>
<g transform="translate(312,132) scale(2.06)"><rect width="6" height="6"></rect></g>
<g transform="translate(360,132) scale(2.06)"><rect width="6" height="6"></rect></g>
<g transform="translate(24,144) scale(2.06)"><rect width="6" height="6"></rect></g>
<g transform="translate(36,144) scale(2.06)"><rect width="6" height="6"></rect></g>
<g transform="translate(60,144) scale(2.06)"><rect width="6" height="6"></rect></g>
<g transform="translate(72,144) scale(2.06)"><rect width="6" height="6"></rect></g>
<g transform="translate(84,144) scale(2.06)"><rect width="6" height="6"></rect></g>
<g transform="translate(96,144) scale(2.06)"><rect width="6" height="6"></rect></g>
<g transform="translate(180,144) scale(2.06)"><rect width="6" height="6"></rect></g>
<g transform="translate(192,144) scale(2.06)"><rect width="6" height="6"></rect></g>
<g transform="translate(204,144) scale(2.06)"><rect width="6" height="6"></rect></g>
<g transform="translate(216,144) scale(2.06)"><rect width="6" height="6"></rect></g>
<g transform="translate(276,144) scale(2.06)"><rect width="6" height="6"></rect></g>
<g transform="translate(24,156) scale(2.06)"><rect width="6" height="6"></rect></g>
<g transform="translate(36,156) scale(2.06)"><rect width="6" height="6"></rect></g>
<g transform="translate(60,156) scale(2.06)"><rect width="6" height="6"></rect></g>
<g transform="translate(84,156) scale(2.06)"><rect width="6" height="6"></rect></g>
<g transform="translate(108,156) scale(2.06)"><rect width="6" height="6"></rect></g>
<g transform="translate(132,156) scale(2.06)"><rect width="6" height="6"></rect></g>
<g transform="translate(180,156) scale(2.06)"><rect width="6" height="6"></rect></g>
<g transform="translate(204,156) scale(2.06)"><rect width="6" height="6"></rect></g>
<g transform="translate(264,156) scale(2.06)"><rect width="6" height="6"></rect></g>
<g transform="translate(300,156) scale(2.06)"><rect width="6" height="6"></rect></g>
<g transform="translate(324,156) scale(2.06)"><rect width="6" height="6"></rect></g>
<g transform="translate(348,156) scale(2.06)"><rect width="6" height="6"></rect></g>
<g transform="translate(24,168) scale(2.06)"><rect width="6" height="6"></rect></g>
<g transform="translate(36,168) scale(2.06)"><rect width="6" height="6"></rect></g>
<g transform="translate(48,168) scale(2.06)"><rect width="6" height="6"></rect></g>
<g transform="translate(72,168) scale(2.06)"><rect width="6" height="6"></rect></g>
<g transform="translate(84,168) scale(2.06)"><rect width="6" height="6"></rect></g>
<g transform="translate(96,168) scale(2.06)"><rect width="6" height="6"></rect></g>
<g transform="translate(120,168) scale(2.06)"><rect width="6" height="6"></rect></g>
<g transform="translate(132,168) scale(2.06)"><rect width="6" height="6"></rect></g>
<g transform="translate(144,168) scale(2.06)"><rect width="6" height="6"></rect></g>
<g transform="translate(192,168) scale(2.06)"><rect width="6" height="6"></rect></g>
<g transform="translate(204,168) scale(2.06)"><rect width="6" height="6"></rect></g>
<g transform="translate(228,168) scale(2.06)"><rect width="6" height="6"></rect></g>
<g transform="translate(240,168) scale(2.06)"><rect width="6" height="6"></rect></g>
<g transform="translate(252,168) scale(2.06)"><rect width="6" height="6"></rect></g>
<g transform="translate(324,168) scale(2.06)"><rect width="6" height="6"></rect></g>
<g transform="translate(336,168) scale(2.06)"><rect width="6" height="6"></rect></g>
<g transform="translate(24,180) scale(2.06)"><rect width="6" height="6"></rect></g>
<g transform="translate(36,180) scale(2.06)"><rect width="6" height="6"></rect></g>
<g transform="translate(48,180) scale(2.06)"><rect width="6" height="6"></rect></g>
<g transform="translate(60,180) scale(2.06)"><rect width="6" height="6"></rect></g>
<g transform="translate(108,180) scale(2.06)"><rect width="6" height="6"></rect></g>
<g transform="translate(120,180) scale(2.06)"><rect width="6" height="6"></rect></g>
<g transform="translate(132,180) scale(2.06)"><rect width="6" height="6"></rect></g>
<g transform="translate(144,180) scale(2.06)"><rect width="6" height="6"></rect></g>
<g transform="translate(156,180) scale(2.06)"><rect width="6" height="6"></rect></g>
<g transform="translate(216,180) scale(2.06)"><rect width="6" height="6"></rect></g>
<g transform="translate(228,180) scale(2.06)"><rect width="6" height="6"></rect></g>
<g transform="translate(240,180) scale(2.06)"><rect width="6" height="6"></rect></g>
<g transform="translate(252,180) scale(2.06)"><rect width="6" height="6"></rect></g>
<g transform="translate(264,180) scale(2.06)"><rect width="6" height="6"></rect></g>
<g transform="translate(276,180) scale(2.06)"><rect width="6" height="6"></rect></g>
<g transform="translate(288,180) scale(2.06)"><rect width="6" height="6"></rect></g>
<g transform="translate(312,180) scale(2.06)"><rect width="6" height="6"></rect></g>
<g transform="translate(360,180) scale(2.06)"><rect width="6" height="6"></rect></g>
<g transform="translate(36,192) scale(2.06)"><rect width="6" height="6"></rect></g>
<g transform="translate(48,192) scale(2.06)"><rect width="6" height="6"></rect></g>
<g transform="translate(96,192) scale(2.06)"><rect width="6" height="6"></rect></g>
<g transform="translate(108,192) scale(2.06)"><rect width="6" height="6"></rect></g>
<g transform="translate(132,192) scale(2.06)"><rect width="6" height="6"></rect></g>
<g transform="translate(144,192) scale(2.06)"><rect width="6" height="6"></rect></g>
<g transform="translate(156,192) scale(2.06)"><rect width="6" height="6"></rect></g>
<g transform="translate(168,192) scale(2.06)"><rect width="6" height="6"></rect></g>
<g transform="translate(204,192) scale(2.06)"><rect width="6" height="6"></rect></g>
<g transform="translate(216,192) scale(2.06)"><rect width="6" height="6"></rect></g>
<g transform="translate(228,192) scale(2.06)"><rect width="6" height="6"></rect></g>
<g transform="translate(264,192) scale(2.06)"><rect width="6" height="6"></rect></g>
<g transform="translate(288,192) scale(2.06)"><rect width="6" height="6"></rect></g>
<g transform="translate(312,192) scale(2.06)"><rect width="6" height="6"></rect></g>
<g transform="translate(324,192) scale(2.06)"><rect width="6" height="6"></rect></g>
<g transform="translate(336,192) scale(2.06)"><rect width="6" height="6"></rect></g>
<g transform="translate(24,204) scale(2.06)"><rect width="6" height="6"></rect></g>
<g transform="translate(36,204) scale(2.06)"><rect width="6" height="6"></rect></g>
<g transform="translate(108,204) scale(2.06)"><rect width="6" height="6"></rect></g>
<g transform="translate(144,204) scale(2.06)"><rect width="6" height="6"></rect></g>
<g transform="translate(156,204) scale(2.06)"><rect width="6" height="6"></rect></g>
<g transform="translate(168,204) scale(2.06)"><rect width="6" height="6"></rect></g>
<g transform="translate(192,204) scale(2.06)"><rect width="6" height="6"></rect></g>
<g transform="translate(264,204) scale(2.06)"><rect width="6" height="6"></rect></g>
<g transform="translate(288,204) scale(2.06)"><rect width="6" height="6"></rect></g>
<g transform="translate(312,204) scale(2.06)"><rect width="6" height="6"></rect></g>
<g transform="translate(348,204) scale(2.06)"><rect width="6" height="6"></rect></g>
<g transform="translate(36,216) scale(2.06)"><rect width="6" height="6"></rect></g>
<g transform="translate(84,216) scale(2.06)"><rect width="6" height="6"></rect></g>
<g transform="translate(96,216) scale(2.06)"><rect width="6" height="6"></rect></g>
<g transform="translate(108,216) scale(2.06)"><rect width="6" height="6"></rect></g>
<g transform="translate(120,216) scale(2.06)"><rect width="6" height="6"></rect></g>
<g transform="translate(204,216) scale(2.06)"><rect width="6" height="6"></rect></g>
<g transform="translate(228,216) scale(2.06)"><rect width="6" height="6"></rect></g>
<g transform="translate(264,216) scale(2.06)"><rect width="6" height="6"></rect></g>
<g transform="translate(300,216) scale(2.06)"><rect width="6" height="6"></rect></g>
<g transform="translate(324,216) scale(2.06)"><rect width="6" height="6"></rect></g>
<g transform="translate(336,216) scale(2.06)"><rect width="6" height="6"></rect></g>
<g transform="translate(24,228) scale(2.06)"><rect width="6" height="6"></rect></g>
<g transform="translate(48,228) scale(2.06)"><rect width="6" height="6"></rect></g>
<g transform="translate(72,228) scale(2.06)"><rect width="6" height="6"></rect></g>
<g transform="translate(84,228) scale(2.06)"><rect width="6" height="6"></rect></g>
<g transform="translate(108,228) scale(2.06)"><rect width="6" height="6"></rect></g>
<g transform="translate(120,228) scale(2.06)"><rect width="6" height="6"></rect></g>
<g transform="translate(156,228) scale(2.06)"><rect width="6" height="6"></rect></g>
<g transform="translate(168,228) scale(2.06)"><rect width="6" height="6"></rect></g>
<g transform="translate(180,228) scale(2.06)"><rect width="6" height="6"></rect></g>
<g transform="translate(192,228) scale(2.06)"><rect width="6" height="6"></rect></g>
<g transform="translate(204,228) scale(2.06)"><rect width="6" height="6"></rect></g>
<g transform="translate(216,228) scale(2.06)"><rect width="6" height="6"></rect></g>
<g transform="translate(252,228) scale(2.06)"><rect width="6" height="6"></rect></g>
<g transform="translate(264,228) scale(2.06)"><rect width="6" height="6"></rect></g>
<g transform="translate(276,228) scale(2.06)"><rect width="6" height="6"></rect></g>
<g transform="translate(288,228) scale(2.06)"><rect width="6" height="6"></rect></g>
<g transform="translate(300,228) scale(2.06)"><rect width="6" height="6"></rect></g>
<g transform="translate(312,228) scale(2.06)"><rect width="6" height="6"></rect></g>
<g transform="translate(336,228) scale(2.06)"><rect width="6" height="6"></rect></g>
<g transform="translate(360,228) scale(2.06)"><rect width="6" height="6"></rect></g>
<g transform="translate(24,240) scale(2.06)"><rect width="6" height="6"></rect></g>
<g transform="translate(48,240) scale(2.06)"><rect width="6" height="6"></rect></g>
<g transform="translate(60,240) scale(2.06)"><rect width="6" height="6"></rect></g>
<g transform="translate(96,240) scale(2.06)"><rect width="6" height="6"></rect></g>
<g transform="translate(108,240) scale(2.06)"><rect width="6" height="6"></rect></g>
<g transform="translate(120,240) scale(2.06)"><rect width="6" height="6"></rect></g>
<g transform="translate(132,240) scale(2.06)"><rect width="6" height="6"></rect></g>
<g transform="translate(144,240) scale(2.06)"><rect width="6" height="6"></rect></g>
<g transform="translate(180,240) scale(2.06)"><rect width="6" height="6"></rect></g>
<g transform="translate(192,240) scale(2.06)"><rect width="6" height="6"></rect></g>
<g transform="translate(204,240) scale(2.06)"><rect width="6" height="6"></rect></g>
<g transform="translate(240,240) scale(2.06)"><rect width="6" height="6"></rect></g>
<g transform="translate(264,240) scale(2.06)"><rect width="6" height="6"></rect></g>
<g transform="translate(312,240) scale(2.06)"><rect width="6" height="6"></rect></g>
<g transform="translate(336,240) scale(2.06)"><rect width="6" height="6"></rect></g>
<g transform="translate(24,252) scale(2.06)"><rect width="6" height="6"></rect></g>
<g transform="translate(48,252) scale(2.06)"><rect width="6" height="6"></rect></g>
<g transform="translate(60,252) scale(2.06)"><rect width="6" height="6"></rect></g>
<g transform="translate(72,252) scale(2.06)"><rect width="6" height="6"></rect></g>
<g transform="translate(84,252) scale(2.06)"><rect width="6" height="6"></rect></g>
<g transform="translate(120,252) scale(2.06)"><rect width="6" height="6"></rect></g>
<g transform="translate(132,252) scale(2.06)"><rect width="6" height="6"></rect></g>
<g transform="translate(180,252) scale(2.06)"><rect width="6" height="6"></rect></g>
<g transform="translate(204,252) scale(2.06)"><rect width="6" height="6"></rect></g>
<g transform="translate(240,252) scale(2.06)"><rect width="6" height="6"></rect></g>
<g transform="translate(276,252) scale(2.06)"><rect width="6" height="6"></rect></g>
<g transform="translate(312,252) scale(2.06)"><rect width="6" height="6"></rect></g>
<g transform="translate(348,252) scale(2.06)"><rect width="6" height="6"></rect></g>
<g transform="translate(24,264) scale(2.06)"><rect width="6" height="6"></rect></g>
<g transform="translate(48,264) scale(2.06)"><rect width="6" height="6"></rect></g>
<g transform="translate(60,264) scale(2.06)"><rect width="6" height="6"></rect></g>
<g transform="translate(72,264) scale(2.06)"><rect width="6" height="6"></rect></g>
<g transform="translate(96,264) scale(2.06)"><rect width="6" height="6"></rect></g>
<g transform="translate(108,264) scale(2.06)"><rect width="6" height="6"></rect></g>
<g transform="translate(120,264) scale(2.06)"><rect width="6" height="6"></rect></g>
<g transform="translate(132,264) scale(2.06)"><rect width="6" height="6"></rect></g>
<g transform="translate(144,264) scale(2.06)"><rect width="6" height="6"></rect></g>
<g transform="translate(156,264) scale(2.06)"><rect width="6" height="6"></rect></g>
<g transform="translate(168,264) scale(2.06)"><rect width="6" height="6"></rect></g>
<g transform="translate(192,264) scale(2.06)"><rect width="6" height="6"></rect></g>
<g transform="translate(216,264) scale(2.06)"><rect width="6" height="6"></rect></g>
<g transform="translate(228,264) scale(2.06)"><rect width="6" height="6"></rect></g>
<g transform="translate(240,264) scale(2.06)"><rect width="6" height="6"></rect></g>
<g transform="translate(264,264) scale(2.06)"><rect width="6" height="6"></rect></g>
<g transform="translate(276,264) scale(2.06)"><rect width="6" height="6"></rect></g>
<g transform="translate(288,264) scale(2.06)"><rect width="6" height="6"></rect></g>
<g transform="translate(300,264) scale(2.06)"><rect width="6" height="6"></rect></g>
<g transform="translate(312,264) scale(2.06)"><rect width="6" height="6"></rect></g>
<g transform="translate(336,264) scale(2.06)"><rect width="6" height="6"></rect></g>
<g transform="translate(348,264) scale(2.06)"><rect width="6" height="6"></rect></g>
<g transform="translate(360,264) scale(2.06)"><rect width="6" height="6"></rect></g>
<g transform="translate(120,276) scale(2.06)"><rect width="6" height="6"></rect></g>
<g transform="translate(144,276) scale(2.06)"><rect width="6" height="6"></rect></g>
<g transform="translate(216,276) scale(2.06)"><rect width="6" height="6"></rect></g>
<g transform="translate(264,276) scale(2.06)"><rect width="6" height="6"></rect></g>
<g transform="translate(312,276) scale(2.06)"><rect width="6" height="6"></rect></g>
<g transform="translate(324,276) scale(2.06)"><rect width="6" height="6"></rect></g>
<g transform="translate(336,276) scale(2.06)"><rect width="6" height="6"></rect></g>
<g transform="translate(348,276) scale(2.06)"><rect width="6" height="6"></rect></g>
<g transform="translate(360,276) scale(2.06)"><rect width="6" height="6"></rect></g>
<g transform="translate(168,288) scale(2.06)"><rect width="6" height="6"></rect></g>
<g transform="translate(204,288) scale(2.06)"><rect width="6" height="6"></rect></g>
<g transform="translate(228,288) scale(2.06)"><rect width="6" height="6"></rect></g>
<g transform="translate(240,288) scale(2.06)"><rect width="6" height="6"></rect></g>
<g transform="translate(252,288) scale(2.06)"><rect width="6" height="6"></rect></g>
<g transform="translate(264,288) scale(2.06)"><rect width="6" height="6"></rect></g>
<g transform="translate(288,288) scale(2.06)"><rect width="6" height="6"></rect></g>
<g transform="translate(312,288) scale(2.06)"><rect width="6" height="6"></rect></g>
<g transform="translate(324,288) scale(2.06)"><rect width="6" height="6"></rect></g>
<g transform="translate(336,288) scale(2.06)"><rect width="6" height="6"></rect></g>
<g transform="translate(120,300) scale(2.06)"><rect width="6" height="6"></rect></g>
<g transform="translate(168,300) scale(2.06)"><rect width="6" height="6"></rect></g>
<g transform="translate(192,300) scale(2.06)"><rect width="6" height="6"></rect></g>
<g transform="translate(240,300) scale(2.06)"><rect width="6" height="6"></rect></g>
<g transform="translate(252,300) scale(2.06)"><rect width="6" height="6"></rect></g>
<g transform="translate(264,300) scale(2.06)"><rect width="6" height="6"></rect></g>
<g transform="translate(312,300) scale(2.06)"><rect width="6" height="6"></rect></g>
<g transform="translate(348,300) scale(2.06)"><rect width="6" height="6"></rect></g>
<g transform="translate(360,300) scale(2.06)"><rect width="6" height="6"></rect></g>
<g transform="translate(120,312) scale(2.06)"><rect width="6" height="6"></rect></g>
<g transform="translate(156,312) scale(2.06)"><rect width="6" height="6"></rect></g>
<g transform="translate(168,312) scale(2.06)"><rect width="6" height="6"></rect></g>
<g transform="translate(216,312) scale(2.06)"><rect width="6" height="6"></rect></g>
<g transform="translate(264,312) scale(2.06)"><rect width="6" height="6"></rect></g>
<g transform="translate(276,312) scale(2.06)"><rect width="6" height="6"></rect></g>
<g transform="translate(288,312) scale(2.06)"><rect width="6" height="6"></rect></g>
<g transform="translate(300,312) scale(2.06)"><rect width="6" height="6"></rect></g>
<g transform="translate(312,312) scale(2.06)"><rect width="6" height="6"></rect></g>
<g transform="translate(336,312) scale(2.06)"><rect width="6" height="6"></rect></g>
<g transform="translate(348,312) scale(2.06)"><rect width="6" height="6"></rect></g>
<g transform="translate(120,324) scale(2.06)"><rect width="6" height="6"></rect></g>
<g transform="translate(132,324) scale(2.06)"><rect width="6" height="6"></rect></g>
<g transform="translate(144,324) scale(2.06)"><rect width="6" height="6"></rect></g>
<g transform="translate(180,324) scale(2.06)"><rect width="6" height="6"></rect></g>
<g transform="translate(192,324) scale(2.06)"><rect width="6" height="6"></rect></g>
<g transform="translate(216,324) scale(2.06)"><rect width="6" height="6"></rect></g>
<g transform="translate(264,324) scale(2.06)"><rect width="6" height="6"></rect></g>
<g transform="translate(300,324) scale(2.06)"><rect width="6" height="6"></rect></g>
<g transform="translate(324,324) scale(2.06)"><rect width="6" height="6"></rect></g>
<g transform="translate(336,324) scale(2.06)"><rect width="6" height="6"></rect></g>
<g transform="translate(348,324) scale(2.06)"><rect width="6" height="6"></rect></g>
<g transform="translate(360,324) scale(2.06)"><rect width="6" height="6"></rect></g>
<g transform="translate(120,336) scale(2.06)"><rect width="6" height="6"></rect></g>
<g transform="translate(132,336) scale(2.06)"><rect width="6" height="6"></rect></g>
<g transform="translate(144,336) scale(2.06)"><rect width="6" height="6"></rect></g>
<g transform="translate(180,336) scale(2.06)"><rect width="6" height="6"></rect></g>
<g transform="translate(192,336) scale(2.06)"><rect width="6" height="6"></rect></g>
<g transform="translate(204,336) scale(2.06)"><rect width="6" height="6"></rect></g>
<g transform="translate(228,336) scale(2.06)"><rect width="6" height="6"></rect></g>
<g transform="translate(240,336) scale(2.06)"><rect width="6" height="6"></rect></g>
<g transform="translate(252,336) scale(2.06)"><rect width="6" height="6"></rect></g>
<g transform="translate(276,336) scale(2.06)"><rect width="6" height="6"></rect></g>
<g transform="translate(288,336) scale(2.06)"><rect width="6" height="6"></rect></g>
<g transform="translate(300,336) scale(2.06)"><rect width="6" height="6"></rect></g>
<g transform="translate(312,336) scale(2.06)"><rect width="6" height="6"></rect></g>
<g transform="translate(324,336) scale(2.06)"><rect width="6" height="6"></rect></g>
<g transform="translate(336,336) scale(2.06)"><rect width="6" height="6"></rect></g>
<g transform="translate(348,336) scale(2.06)"><rect width="6" height="6"></rect></g>
<g transform="translate(192,348) scale(2.06)"><rect width="6" height="6"></rect></g>
<g transform="translate(204,348) scale(2.06)"><rect width="6" height="6"></rect></g>
<g transform="translate(216,348) scale(2.06)"><rect width="6" height="6"></rect></g>
<g transform="translate(252,348) scale(2.06)"><rect width="6" height="6"></rect></g>
<g transform="translate(264,348) scale(2.06)"><rect width="6" height="6"></rect></g>
<g transform="translate(300,348) scale(2.06)"><rect width="6" height="6"></rect></g>
<g transform="translate(312,348) scale(2.06)"><rect width="6" height="6"></rect></g>
<g transform="translate(324,348) scale(2.06)"><rect width="6" height="6"></rect></g>
<g transform="translate(348,348) scale(2.06)"><rect width="6" height="6"></rect></g>
<g transform="translate(120,360) scale(2.06)"><rect width="6" height="6"></rect></g>
<g transform="translate(132,360) scale(2.06)"><rect width="6" height="6"></rect></g>
<g transform="translate(144,360) scale(2.06)"><rect width="6" height="6"></rect></g>
<g transform="translate(156,360) scale(2.06)"><rect width="6" height="6"></rect></g>
<g transform="translate(192,360) scale(2.06)"><rect width="6" height="6"></rect></g>
<g transform="translate(204,360) scale(2.06)"><rect width="6" height="6"></rect></g>
<g transform="translate(216,360) scale(2.06)"><rect width="6" height="6"></rect></g>
<g transform="translate(228,360) scale(2.06)"><rect width="6" height="6"></rect></g>
<g transform="translate(252,360) scale(2.06)"><rect width="6" height="6"></rect></g>
<g transform="translate(312,360) scale(2.06)"><rect width="6" height="6"></rect></g>
<g transform="translate(336,360) scale(2.06)"><rect width="6" height="6"></rect></g>
<g transform="translate(24,24)"><g transform="scale(6)"><path d="M0,0l0,14h14V0H0z M7,12L7,12c-2.8,0-5-2.2-5-5v0c0-2.8,2.2-5,5-5h0c2.8,0,5,2.2,5,5v0C12,9.8,9.8,12,7,12z"></path></g></g>
<g transform="translate(288,24)"><g transform="scale(6)"><path d="M0,0l0,14h14V0H0z M7,12L7,12c-2.8,0-5-2.2-5-5v0c0-2.8,2.2-5,5-5h0c2.8,0,5,2.2,5,5v0C12,9.8,9.8,12,7,12z"></path></g></g>
<g transform="translate(24,288)"><g transform="scale(6)"><path d="M0,0l0,14h14V0H0z M7,12L7,12c-2.8,0-5-2.2-5-5v0c0-2.8,2.2-5,5-5h0c2.8,0,5,2.2,5,5v0C12,9.8,9.8,12,7,12z"></path></g></g>
<g transform="translate(48,48)"><g transform="scale(6)"><rect x="0.9" y="0.9" transform="matrix(0.7071 -0.7071 0.7071 0.7071 -1.2426 3)" width="4.2" height="4.2"></rect></g></g>
<g transform="translate(312,48)"><g transform="scale(6)"><rect x="0.9" y="0.9" transform="matrix(0.7071 -0.7071 0.7071 0.7071 -1.2426 3)" width="4.2" height="4.2"></rect></g></g>
<g transform="translate(48,312)"><g transform="scale(6)"><rect x="0.9" y="0.9" transform="matrix(0.7071 -0.7071 0.7071 0.7071 -1.2426 3)" width="4.2" height="4.2"></rect></g></g>
</g></g></mask></defs>
<rect width="396" height="396" fill="#ffffff" x="0" y="0"></rect>
<rect x="0" y="0" width="396" height="396" mask="url(#qrmask)" fill="url(#pattern-gradient)"></rect>
</svg>